/* XPM */
static char *result[] = {
/* columns rows colors chars-per-pixel */
"64 64 135 2 ",
"   c #221F1F",
".  c #23211D",
"X  c #231F21",
"o  c #232122",
"O  c #292627",
"+  c #262528",
"@  c #28252A",
"#  c #2D2E31",
"$  c #2F3132",
"%  c #323335",
"&  c #373639",
"*  c #383739",
"=  c #39383A",
"-  c #3A3D45",
";  c #393E49",
":  c #384047",
">  c #3C414B",
",  c #44454D",
"<  c #444953",
"1  c #4A4C54",
"2  c #464F5D",
"3  c #47505E",
"4  c #49525E",
"5  c #54555B",
"6  c #4C5461",
"7  c #515663",
"8  c #525966",
"9  c #5A5B63",
"0  c #555D6D",
"q  c #575F70",
"w  c #57606F",
"e  c #5B626D",
"r  c #576071",
"t  c #5A6273",
"y  c #5F6A76",
"u  c #5D6778",
"i  c #5E697D",
"p  c #656A73",
"a  c #686D76",
"s  c #636B7C",
"d  c #6B717C",
"f  c #6D7483",
"g  c #727684",
"h  c #727986",
"j  c #787A86",
"k  c #757C8A",
"l  c #7A7D8A",
"z  c #747E94",
"x  c #7C828E",
"c  c #778195",
"v  c #7B8393",
"b  c #7C8699",
"n  c #7F889B",
"m  c #818695",
"M  c #818996",
"N  c #80879A",
"B  c #848C9D",
"V  c #888F9D",
"C  c #87909F",
"Z  c #8A919F",
"A  c #868EA1",
"S  c #888EA1",
"D  c #8790A1",
"F  c #8B93A4",
"G  c #8792AC",
"H  c #8A95AB",
"J  c #8D98AD",
"K  c #9094A6",
"L  c #929BA6",
"P  c #9197AA",
"I  c #939AAC",
"U  c #989CAE",
"Y  c #8F9AB0",
"T  c #969EB1",
"R  c #989CB0",
"E  c #9AA3AC",
"W  c #95A0B3",
"Q  c #99A1B6",
"!  c #9CA4BB",
"~  c #A1A8B3",
"^  c #A2A7BA",
"/  c #A2AABD",
"(  c #ACB2BD",
")  c #A5ACC2",
"_  c #A8ADC1",
"`  c #AEB6CD",
"'  c #AFB8CC",
"]  c #B4BAC6",
"[  c #B8BFC7",
"{  c #B0B7CE",
"}  c #B2BBCC",
"|  c #BBBFC9",
" . c #B0B7D0",
".. c #B5BCD3",
"X. c #B9BDD5",
"o. c #BCC2CB",
"O. c #BCC3D4",
"+. c #BEC5DC",
"@. c #BFC9DA",
"#. c #C2C6CE",
"$. c #C2C8CF",
"%. c #C0C6D7",
"&. c #C5C9D2",
"*. c #C0C7DE",
"=. c #C3CADD",
"-. c #C8CEDF",
";. c #CAD2DE",
":. c #C6CEE6",
">. c #C9CFE6",
",. c #C7CFE9",
"<. c #C8CFE9",
"1. c #C7D0E7",
"2. c #CAD1E4",
"3. c #C7D0E9",
"4. c #C9D1E9",
"5. c #D2D6E2",
"6. c #D3D9E6",
"7. c #D9DCE6",
"8. c #D1D7EB",
"9. c #D5DCEC",
"0. c #D9DEEE",
"q. c #D5DBF0",
"w. c #D9DFF1",
"e. c #DDE3E7",
"r. c #DDE1EC",
"t. c #DEE4F2",
"y. c #E1E6EF",
"u. c #E1E5F2",
"i. c #E7EEF4",
"p. c #E5E9F8",
"a. c #E7F0FA",
"s. c #EEF6FD",
"d. c #EFF8FD",
"f. c #F0F7FE",
"g. c #F0F8FE",
/* pixels */
"o % X.4.3.3.1.4.1.4.4.1.4.4.4.<.4.3.4.4.j o . o   . o X . +   . . . . . . o o   X   X 9 ,.1.3.1.4.4.4.1.4.4.:.4.1.4.<.4.:.+.1   ",
"o % X.1.1.:.:.4.1.<.,.<.:.,.:.4.4.,.:.:.l + + O + + + + @ @ O + O O + @ O O + + + + + 9 ,.1.,.,.:.<.4.,.,.,.,.,.,.4.4.:.1.:.1   ",
"o % X.<.1.,.1.3.4.<.,.<.,.<.,.4.<.,.,.:.{ U U I U U U U R R R R U U U U R R U U R U R ) ,.,.,.,.4.<.4.,.<.<.,.,.,.<.>.:.>.*.1 X ",
"o % X.>.1.1.1.1.,.<.1.1.4.1.1.,.:.:.,.:.O.{ ' ' ' { ` ` ` ` ` ` { { ` `  .' ` `  .`  .X.:.1.1.1.4.:.4.:.1.1.<.<.1.4.>.,.,.*.1 o ",
"o % ;.t.t.t.O.F F H H F F H F H H F F H A N N N M M N B N N B n N N B N B N B n B n n A H F F H F H H F F H H F F ) ,.:.:.+.1   ",
"o = e.g.g.g.o.w r r 0 q q r q q q q q q q r r r r q q q t q q q t q q q r q q q r r q q q q q r q q r r r q q q q A ,.,.1.:.1   ",
"o = e.g.d.g.o.w t a s s s s s s s s s s s s s s s s s s s s 0 0 s s s s s s s s s s s s s s s s s s s s s s s t t A <.4.>.:.1 o ",
"  % e.g.g.g.o.w t B A V A A V S V A V A V A A B V V A A A z 2 2 n A A V A V A A B A A V B V A A V A D A V A V s q A ,.<.>.*.1   ",
"o & e.d.d.d.o.w t B V D D D D D F A F A D D D F D F D D A c 2 6 n A S D F D F D D D D F S F A A D D F D D D V s r D <.<.<.+.1   ",
"o = e.d.d.d.o.r t B D ` +.+.+.@.@.+.+.+.*.*.+.+.+.+.+.+.+.) q t ..+.+.+.+.+.+.+.*.+.*.*.@.+.*.*.*.@.*.+.O.F B s r A <.<.4.:.1 X ",
"  & e.d.s.d.o.w u N D ..3.:.1.4.<.,.,.,.,.,.,.,.,.,.,.,.1.` t t +.:.4.,.,.,.,.4.,.,.,.<.<.,.,.,.<.<.4.3.+.D B s q A <.,.:.:.1   ",
"o & e.d.d.s.=.c c A D ..3.:.,.4.4.,.,.>.,.,.,.,.,.,.:.:.:.` t t +.3.,.,.,.:.,.:.,.,.,.,.4.:.,.:.,.,.4.3.+.G B s q A ,.,.:.=.1   ",
"  & e.d.d.d.2.G H V A ..3.4.4.4.<.>.:.1.:.4.4.1.,.:.:.4.1.` r t +.:.<.:.4.,.:.1.,.:.:.4.:.,.:.4.,.:.3.3.+.H V i q V ,.,.:.*.1 X ",
"o & e.d.s.d.&.b n U U %.4.4.1.4.4.:.3.:.:.:.<.<.:.4.,.,.:.` r t +.:.1.:.,.>.3.>.1.,.1.4.1.:.1.:.,.,.4.,.+.F V s q A <.,.:.*.1 X ",
"o & e.d.s.d.| q s [ #.7.u.q.<.4.4.4.,.<.3.,.4.4.,.,.:.3.1.` t t O.,.:.:.4.<.:.:.:.:.1.4.4.:.,.:.,.,.4.,.+.H B s q A ,.,.,.*.1 X ",
"o = e.d.s.s.o.0 s ] o.9.u.0.2.4.4.>.4.4.2.1.1.4.4.:.4.4.3.` t t +.3.4.3.1.4.4.1.4.3.4.4.4.>.4.4.4.3.<.<.*.F V s r A <.,.,.:.1 X ",
"o = e.d.d.d.o.r p S K X.<.8.t.t.t.t.t.t.t.t.t.,.<.<.4.4.<.` t u +.<.1.4.4.4.3.4.1.4.1.4.4.4.4.4.4.4.4.<.@.H B s r D ,.<.4.+.1 X ",
". & e.d.d.d.o.r t N S ..<.8.u.u.u.u.u.u.u.u.t.,.<.<.,.,.:.` t t O.<.>.:.:.1.:.>.:.,.:.<.:.:.:.:.:.:.4.,.+.F B s q A ,.,.,.:.1   ",
"o & e.d.d.d.=.c N ( _ 5.w.q.8.8.4.8.8.8.8.q.4.w.0.0.0.0.9.%.v b *.,.:.3.:.:.,.:.4.:.>.<.1.:.:.,.,.,.4.,.*.H B s q A ,.,.:.+.1 . ",
"  & e.d.d.d.;.G K #.#.7.u.w.<.<.4.>.<.>.,.4.4.u.u.u.u.u.t.2.H H :.,.,.>.>.4.,.<.,.,.:.<.,.3.,.,.:.3.4.,.@.F B s q A :.,.:.:.1 X ",
"o = e.d.d.g.;.H P X.#.7.u.r.8.5.8.8.8.8.8.8.8.w.0.w.w.0.r.@.b b =.8.8.8.4.4.4.4.4.,.,.<.,.4.<.4.4.4.4.<.*.H B s t A 4.4.4.+.1 o ",
"  = e.d.d.g.2.G P | #.7.u.u.u.u.u.u.u.u.u.u.t.4.<.<.>.>.,.` t t 6.t.u.u.w.,.<.<.<.,.,.<.4.,.<.<.,.,.4.,.*.F B s q A ,.<.:.:.1 o ",
"o = e.d.d.d.2.G P #.#.7.u.u.u.u.u.u.u.u.u.u.t.1.4.4.4.4.4.` t u 5.t.u.t.t.4.4.4.4.4.4.4.<.4.3.,.1.1.4.4.+.F V s r A <.<.:.+.1 o ",
"  & e.d.d.d.;.H P | #.7.u.u.u.u.u.u.u.u.u.u.u.y.u.u.u.u.t.O.t t O.<.,.>.8.t.u.u.u.u.u.w.4.3.3.<.3.3.4.3.@.H A s r S <.<.4.:.1 . ",
"o & e.d.f.g.;.G J o.$.7.u.u.u.u.u.u.u.u.u.u.u.t.u.u.u.u.u.O.t u *.<.<.<.8.u.u.t.u.u.u.w.<.<.,.<.<.<.<.<.+.F A s r A ,.,.,.+.1   ",
"o & e.d.f.f.;.G J o.#.7.u.u.u.u.u.u.u.u.u.u.u.u.u.u.u.u.u.-.b b 4.w.0.0.0.8.4.8.8.8.8.q.w.w.w.t.w.w.w.w.5.F V s q A ,.,.,.:.1 X ",
"  & e.d.f.f.;.G P o.#.7.u.u.u.u.u.u.u.u.u.u.u.u.u.u.u.u.y.2.H H 0.u.u.u.w.,.4.4.<.<.4.4.u.u.u.u.u.u.u.u.9.F V s q A ,.,.>.*.1   ",
"o = e.a.a.a.;.H T #.$.7.u.u.u.u.u.u.u.u.u.u.u.u.u.u.u.u.y.2.J H 0.u.u.u.w.q.q.9.8.9.q.9.9.9.9.9.9.9.9.w.5./ E f r F 4.,.<.:.1 o ",
"  & 5.p.p.p.=.G H o.#.7.u.u.u.u.u.u.u.u.u.u.u.u.t.u.u.u.u.2.H G 9.u.u.u.u.u.u.u.u.u.u.0.1.>.<.<.<.<.4.<.-.#.o.h q A ,.<.<.+.1   ",
"o & 5.p.p.p.=.H Y o.#.7.u.u.u.u.u.u.u.u.u.u.u.u.u.u.u.t.y.2.G H r.u.u.u.u.u.u.u.u.u.u.r.2.4.<.<.4.4.8.4.-.#.[ h q A ,.,.>.:.1 X ",
"o & 6.p.p.p.=.G J #.#.7.u.u.u.u.u.u.u.u.u.u.u.u.u.u.u.t.y.5.H H 9.u.u.u.u.u.u.u.u.u.u.u.u.u.t.t.t.t.u.t.8.I F s r A ,.,.:.:.1 X ",
"  & 2.p.p.p.=.H J | #.7.u.u.u.u.u.u.u.u.u.u.u.u.u.u.u.i.y.2.H H 9.u.u.u.u.u.u.u.u.u.u.u.u.u.u.u.u.u.u.u.8.K V s r A :.:.:.=.1 o ",
"X & 8.p.p.p.*.G U | #.7.u.u.u.u.u.u.u.u.u.u.u.t.u.u.u.u.y.2.G H r.t.u.u.u.u.u.u.u.u.u.u.u.u.u.u.u.u.u.u.7.| ] g q P a.a.a.t.5 o ",
"X & 5.p.p.p.*.G K | #.7.u.u.u.u.u.u.u.u.u.u.u.t.u.u.u.u.y.2.H H r.t.u.u.u.u.u.u.u.u.u.u.u.u.u.u.u.u.u.u.r.&.o.j q I d.d.d.i.5 o ",
"X & :.w.q.w.+.G K #.#.7.u.u.u.u.u.u.u.t.u.u.u.i.u.u.u.u.y.2.H J 9.u.t.u.p.u.u.u.u.u.u.u.u.u.u.u.u.u.u.u.r.&.#.j t P t.t.t.7.4 O ",
"X % +.4.4.4...G P | #.7.u.u.u.u.u.u.u.u.u.u.u.u.u.u.u.y.y.2.G H 9.t.u.u.u.t.p.t.u.u.u.u.u.u.u.u.u.u.u.u.r.&.o.j q S 3.3.3.=.1 . ",
"o % +.3.q.3...G P #.#.7.u.u.u.u.u.u.u.u.u.u.u.u.u.u.u.i.y.2.J H r.t.u.u.u.u.u.u.u.u.u.u.u.u.u.u.u.u.u.u.y.&.#.m s H 8.8.8.2.1 o ",
"o % +.3.4.4...G P X.#.7.u.u.u.u.u.u.u.u.u.u.u.u.u.u.y.t.y.2.H H 9.i.u.u.u.u.u.u.u.u.u.u.u.u.y.u.u.u.u.u.r.&.#.R G ' d.d.d.i.5 . ",
"o # X.3.3.4. .G K #.#.7.u.u.u.u.u.u.u.u.u.u.u.u.u.u.u.u.y.2.G H 9.t.u.u.u.u.u.u.u.u.u.u.u.u.u.u.u.u.u.u.r.&.#.R G } d.d.d.i.5 o ",
"o - +.3.3.<.! f f | #.7.u.r.u.u.t.u.u.u.u.u.u.t.u.u.u.u.y.2.G H r.t.u.u.u.t.u.u.u.u.u.u.u.u.u.u.u.u.u.u.r.&.#.R n o.d.d.d.i.5 o ",
"o # X.3.4.q.) f y o.o.e.y.u.u.u.u.u.u.u.u.u.u.u.u.u.u.u.u.2.H H 9.t.t.t.u.u.u.u.u.u.u.u.u.u.u.u.u.u.u.u.r.&.#.W G O.d.d.d.i.4 . ",
"  - +.3.4.4.! 6 y E ~ ;.u.u.u.u.u.u.u.u.t.u.u.u.u.u.u.u.y.2.H H r.t.u.u.u.u.u.u.u.u.u.u.u.u.u.u.u.u.u.u.r.&.#.W G ' d.d.d.i.5 o ",
"  # X.3.3.3.! f t n C =.u.u.u.u.u.t.u.t.u.t.u.u.u.u.u.u.u.2.J H 9.i.u.u.u.u.u.u.u.u.u.u.u.u.u.u.u.u.u.u.r.&.#.W G ' d.d.f.i.5 o ",
"o & ..,.3.,.! 6 u C C @.9.9.0.0.r.9.r.9.9.9.e.u.u.u.u.u.y.2.H H 9.u.t.u.u.t.u.u.u.u.u.u.u.u.u.u.u.u.u.u.r.&.$.W G O.d.d.f.i.5 + ",
"o $ / `  .` n f u B V / ' ' ' ' ' ' ` ` } ` O.t.u.u.u.t.r.2.G H r.t.u.u.u.u.u.u.u.u.u.u.u.u.u.u.u.u.u.u.r.&.#.W G } d.d.f.i.5 X ",
"o $ /  . .` n 0 t B B / ` ` ` ` ` ` ` ` ` ` ..t.t.t.t.t.t.2.G H r.t.u.t.u.u.u.u.u.u.u.u.u.u.u.u.u.u.u.u.r.$.#.W G } d.d.g.i.5 X ",
"o # !  . . .G f t B D ! ` `  . . . . .` `  ...} | } } o.o.! s s 6.t.t.t.u.u.u.u.u.u.u.u.u.u.u.u.u.u.u.u.r.&.$.W G } s.f.f.i.5 + ",
"o $ ! `  . .n 0 t B A ) `  .`  .` ` ` ` ` ` ` ` ' ' ' { { W r t 6.t.t.i.u.u.u.u.u.u.u.u.u.u.u.u.u.u.u.u.r.$.#.W G } f.f.f.i.5 X ",
"o $ /  .` ' H 0 u N A / ` `  . . .` ` ` `  . .` ` ` ` ' { W e t O.=.=.=.<.u.u.u.u.u.u.u.u.u.u.u.u.u.u.u.y.#.#.W G } d.d.d.i.5 o ",
"o # ! ` ` ` J w t B A /  .` ` ` ` ` ` ` ` ` ` ' ` ` ` ` { Q r r _ {  .{ %.u.u.u.u.u.u.u.u.u.u.u.u.u.u.u.0.&.#.R G } d.d.g.i.5 X ",
"+ % !  .' ' J w u N D )  . . . .`  .`  . .`  .' ..`  . .{ Q t u )  . . .X.8.8.8.9.8.6.0.u.u.u.u.u.u.u.u.r.&.%.T H } d.d.f.i.5 + ",
"o $ / ' ` ' L w t V C / ` `  .'  .` `  .` ` ` ` ` ` ` ` { Q t r ) { { { {  .`  .{ { { %.u.u.u.u.u.u.u.u.0.&.&.T G } d.d.f.i.5 o ",
"  $ ! ' ' _ F w r N V ! ` ` ` `  .` `  .`  .`  .` ` ` ` ` T r r ) ` ` `  . . . .{ ` ` X.0.t.0.w.r.t.w.t.0.O.| T G } d.d.f.i.5 o ",
"o # W ! ! ! n 4 7 h k P ! ! ! ! ! ! ! ! ! ! ! ! ! ! ! ! ! H 7 6 T ! / ! ! ! ! ! ^ ! ^ ) _ ) _ _ _ ) ) ) ^ m z A G ' d.d.s.i.5 o ",
"o # J ! ! ! n 4 6 g h J ! ! ! ! ! ! T ! ! ! ! ! ! ! W ! ! D 4 4 I ! ! ! ! ! ! ! ! ! T ) ! ! T ! T ! ) ! R k g b G ] s.s.s.i.5 X ",
"o # J Q ! ! n 4 6 f h Y ! ! ! ! ! ! ! ! ! ! ! ! ! ! ! ! Q D 4 6 I ! ! ! ! ! ! ! ! T ! ! ! ! ! ! ! ! T ! R j g f i C O.| O.[ , X ",
"o # P ! ! ! n 3 6 g h P ! ! ! ! ! ! ! ! ! ! ! ! ! ! ! Q ! F 6 4 T ! ! ! ! ! ! ! ! ! ! ! ! ! ! ! ! ! ! ! T k g 8 3 f ! ! ! W ,   ",
"o # U ! ! ! n 3 7 g h P ! ! ! ! ! ! ! ! ! ! ! ! ! ! ! ! ! F 6 6 I ! ! ! ! ! ! ! ! ! ! ! ! ! ^ ! ! ! ! ! T l h 8 4 f ! ! ! W , . ",
". # P ! T ! n 6 6 g j P ! ! ! ! ! ! ! ! ! ! ! ! ! ! ! ! ! C 4 6 T ! ! ! ! ! ! ! ! ! ! ! ! ! ! ! ! ! ! ! T l g 8 4 f ! ! ! T ; X ",
"o # H ! T ! v 2 4 d g F T ! T ! Q Q Q ! Q Q Q Q Q Q Q Q Q C 3 3 J Q W Q ! Q ! W Q Q Q ^ Q Q W Q T ! ! T U k g 8 3 d W W Q R ; X ",
"X # N H F F h > , p a m H K H K F J F F F J F L F H L F F v > > V F F K F H F P L F F H P F F L H F P H V d s < > t F K H D -   ",
". # m F F F f ; : p p m H S F F L F F F F F F F F F F F D c : > M F F F F F F F F F F F F F F F F D F F B d p < - e F S F V - X ",
"  # N S F F f ; > p a m F Z F F F Z Z Z F F F F Z F D F F k : > B F Z F F F F F Z F F Z F F Z F F Z F F B d p < - e S K Z V -   ",
"  # m F D Z f - - p p m F K Z F Z K Z K F Z Z F Z F Z F F l : : M F Z Z K F Z F K Z Z K F F Z K Z Z K F B d p < ; e F K Z V -   "
};
