/* XPM */
static char *result[] = {
/* columns rows colors chars-per-pixel */
"64 64 154 2 ",
"   c #1B1B1B",
".  c #221F1F",
"X  c #1F201F",
"o  c #22201E",
"O  c #221F20",
"+  c #1F2020",
"@  c #252525",
"#  c #292626",
"$  c #262827",
"%  c #272528",
"&  c #282629",
"*  c #272928",
"=  c #292A2A",
"-  c #2F302E",
";  c #2F2F32",
":  c #302F32",
">  c #2F3030",
",  c #333434",
"<  c #363638",
"1  c #38373E",
"2  c #373839",
"3  c #3B3B3B",
"4  c #373F46",
"5  c #3B3C43",
"6  c #373F48",
"7  c #393F48",
"8  c #3A4046",
"9  c #3E4149",
"0  c #454545",
"q  c #494746",
"w  c #474846",
"e  c #494946",
"r  c #45464A",
"t  c #484748",
"y  c #47494A",
"u  c #49494A",
"i  c #434A54",
"p  c #4A4F5A",
"a  c #49515D",
"s  c #4A5261",
"d  c #515764",
"f  c #545A65",
"g  c #5C5B65",
"h  c #555D6A",
"j  c #585D6B",
"k  c #575F71",
"l  c #585F72",
"z  c #56606E",
"x  c #59606E",
"c  c #576070",
"v  c #596172",
"b  c #5F6778",
"n  c #5F6879",
"m  c #61656E",
"M  c #626572",
"N  c #656A74",
"B  c #60667B",
"V  c #626A7B",
"C  c #696F79",
"Z  c #67707D",
"A  c #6B727C",
"S  c #676F80",
"D  c #696F82",
"F  c #6B7383",
"G  c #6E768B",
"H  c #6F7888",
"J  c #717684",
"K  c #727A86",
"L  c #787C87",
"P  c #747B8A",
"I  c #797C8A",
"U  c #777D92",
"Y  c #787E93",
"T  c #7A828F",
"R  c #778091",
"E  c #7C8393",
"W  c #7E879A",
"Q  c #7F8899",
"!  c #808394",
"~  c #848997",
"^  c #80879B",
"/  c #848C9C",
"(  c #8A8F9E",
")  c #858EA1",
"_  c #898FA3",
"`  c #8490A3",
"'  c #8B92A5",
"]  c #8793AC",
"[  c #8A94AB",
"{  c #9094A4",
"}  c #9299A5",
"|  c #9397AE",
" . c #939BAD",
".. c #949CB0",
"X. c #9C9FB1",
"o. c #97A0B1",
"O. c #9BA3B6",
"+. c #9CA4BA",
"@. c #9FA8BA",
"#. c #A2A5B6",
"$. c #A3ACB5",
"%. c #A2A7BB",
"&. c #A1AABB",
"*. c #AAAEBC",
"=. c #AAB1BB",
"-. c #A5ADC2",
";. c #AAADC1",
":. c #A7B0C6",
">. c #ABB1C3",
",. c #AEB6CB",
"<. c #AFB8CC",
"1. c #B1B6C3",
"2. c #B5BAC3",
"3. c #B0B7CD",
"4. c #B4BBCB",
"5. c #B9BECB",
"6. c #B2BAD2",
"7. c #BEC2CA",
"8. c #BBC5D4",
"9. c #BCC2DA",
"0. c #C2C5CD",
"q. c #C5C8CE",
"w. c #C3C7D1",
"e. c #C5C9D2",
"r. c #C9CDD3",
"t. c #C3CAD8",
"y. c #C8CCDC",
"u. c #CDD6DF",
"i. c #C7CEE6",
"p. c #C8CFE5",
"a. c #C7CFE8",
"s. c #C8CFE9",
"d. c #C7D0E5",
"f. c #CBD2E4",
"g. c #C7D0E9",
"h. c #C9D1E9",
"j. c #D1D5E5",
"k. c #D6DAE3",
"l. c #D0D5E9",
"z. c #D3DAEC",
"x. c #DCDEEA",
"c. c #D3DBF0",
"v. c #D6E1E9",
"b. c #D9E2EB",
"n. c #DBE2F1",
"m. c #E2E6EC",
"M. c #E1E5F2",
"N. c #E3EAF5",
"B. c #E5E9F9",
"V. c #E9EEF9",
"C. c #EEF7FE",
"Z. c #EEF8FE",
"A. c #F0F7FE",
"S. c #F0F8FE",
/* pixels */
"O # ;.s.h.d.h.h.h.a.h.d.s.s.a.i.h.p.h.a.^ @ + O + % O O O O . . o . @   o . O @ . @ . g s.h.h.a.h.h.h.i.h.a.h.h.i.h.h.h.s.6.5 @ ",
"@ # *.a.h.h.h.d.i.i.a.h.h.h.h.a.a.h.h.h.( : ; ; : : : : : : ; ; > - , , > : : : : , = M s.h.h.a.h.a.a.a.a.h.i.a.a.a.p.h.s.9.5 O ",
"@ & ;.a.h.d.h.d.a.a.s.s.s.h.s.a.a.s.s.s.5.%.%.%.%.%.-.-.%.%.%.%.%.%.%.#.%.#.%.%.#.%.%.3.p.s.s.h.s.a.a.a.a.h.a.h.a.a.a.s.h.6.5 O ",
"O % *.i.h.d.h.d.a.i.i.i.i.d.i.i.i.i.s.p.9.6.,.,.,.,.:.,.,.,.,.,.1.,.<.,.,.,.,.1.,.,.,.6.p.p.a.i.i.i.d.i.i.i.i.a.i.i.a.h.s.w.5 . ",
"O # 0.N.N.n.f.Q W W W W W ^ W W W W ^ ^ W U U R U U Y Y U Y U Y Y U Y U U Y Y Y R Y U E Q ^ ^ ^ ^ W W W ^ W W W ^ -.s.s.h.9.5 O ",
"O % r.S.Z.S.u.v k c c c k v c k k k l k c k c z l l l v k l k k v k v k j c l k z z c k v x x x v v c j v v c c l | s.s.s.9.5 O ",
"O & r.S.Z.Z.u.v v F F F F V v v f f f f f f f f d f f f d f f f f d f f f f f f d f f f f f f f x v B F F D F b l ..l.s.s.9.5 O ",
"O & r.A.Z.Z.u.v c W ( ` ) R j h u t y q t y t y t t t t t t t q t q y t t t t u t t t y u q e e f v F ` ` ( / n l | s.s.s.9.5 O ",
"@ & r.Z.Z.Z.u.v v ^ ) ' ' E v z u u u u u u e e u e t q y q t t y q t t q q t t t u u u u u u u f v G ` ' ` ) n l | h.h.a.9.5 O ",
"O * r.Z.Z.Z.u.c v ~ ` :.i.&.x z i t u u u e t t u 3 < < < , , < , 2 2 < , , 2 q q u e u t u e u f l ' i.8.' ^ n v | a.h.a.9.5 O ",
"O & r.Z.Z.Z.u.c v Q ) <.d.:.z h u t u u u e e t t 3 , , , , , , , , 2 , , , , w t q q t q t e u h l ' i.9.` / n k | h.h.h.w.5 . ",
"O & r.Z.Z.Z.v.W W / ) <.i.-.c h u u e e u u q 3 2 2 , - = = = * = = = = - , , 3 2 t y q e u e e h j [ h.9.' / n k | a.h.s.6.5 . ",
"O & r.S.C.A.b.] ] _ / 3.g.-.v h i u u e e q 0 , , 2 , - $ $ $ * = $ = $ = , , , , 0 e e e u e u h k [ p.9.` / n l | s.s.s.9.5 O ",
"O & r.S.S.A.k.U U X.#.w.z.>.v j u u u u q 0 3 , , , > = * * * * = = = * = > - 2 2 5 3 w u u e u h l [ s.9.' ( n l | s.h.h.9.5 O ",
"@ & r.S.S.Z.u.x l 1.0.k.m.4.v h u u e t 0 , , , , = # = $ @ @ @ * $ * $ $ $ $ , , , , 3 e u e e h j ' s.9.' ) n l | s.h.l.6.5 O ",
". & r.Z.S.S.u.v B *.5.f.n.4.v z u u u q 0 , 2 , 2 - # = $ @ @ @ $ $ = * = $ = , , 2 , 3 u u u u h v [ s.9.] ) n l | s.h.s.9.5 O ",
". & r.C.Z.Z.f.x v ~ ' <.s.-.v h u t u q 0 , , , , = * * * @         $ $ $ $ $ * $ , , 3 u u q u h k [ i.9.' ) n c  .i.h.a.9.5 . ",
"O & r.S.Z.Z.u.v v ^ ( ,.p.-.c h u t t q 0 > , , , = $ * $ @         @ $ $ $ $ $ $ - , 3 t u q q h j _ a.9.' / n c [ h.h.a.9.5 . ",
". & r.S.Z.Z.v./ ) >.2.f.b.4.c h y t 3 2 2 , > * * * @ +                 X $ $ $ $ - , , < 3 q u h k [ a.9.[ / n v | g.h.s.9.5 . ",
". & r.A.Z.Z.v.] [ 5.0.k.M.4.c h i t 3 2 < , > * $ $ @ @                   $ * $ $ > , , , < q q f k ' a.9.` / n c | g.h.s.6.5 . ",
"@ * r.Z.Z.Z.b.[ | 5.w.k.m.4.x z u q 0 , 2 , , = & * * @                 X $ $ = $ , 2 < < 3 q u j k [ h.9.' / V l | s.l.s.t.9 O ",
". * r.Z.Z.Z.b.] [ 5.w.k.M.4.z z u q 3 , , , , # $ & $ @                 X $ $ $ $ > , , , < q q f k ' a.9.' / n l | s.s.s.6.5 O ",
"O = r.Z.C.C.b.[ [ 5.0.k.N.4.v z u u 3 , 2 , , = $ $ .               X   X $ $ = $ , , 2 , 3 e u h v [ a.9.' ) n l | s.s.s.9.5 O ",
". & r.C.C.C.v.[ [ 7.0.k.m.4.z f u u 3 , , , - = $                       X $ $ = $ - - , , 3 q q f k _ i.9.' / n k | s.s.s.9.5 O ",
". & r.A.C.C.x.] [ 5.w.k.M.4.x z u u 5 , , , - # * o                     X * $ $ $ - , , , 2 q e f z [ f.8.` / n l | a.h.a.6.5 @ ",
". & r.A.A.A.b.] [ 5.0.k.M.4.c z u u 3 , , , , # # o                       $ $ * $ - , , , 2 e e z z  .n.f.' / n k | a.h.a.9.5 O ",
"o & r.A.A.A.z.[ [ 5.0.k.M.4.z z t t 3 , 2 , , * $ X                     X $ $ * $ , , , , 2 w e f z  .m.k.' / n k | a.a.h.6.5 . ",
"# = q.V.V.V.k.[ [ 5.0.k.b.7.x z i t q 0 3 2 , = * @             X   +   + * = = $ , 2 2 , < e e z v } z.f.=.=.Z v ..h.g.h.w.5 O ",
". # 7.B.B.B.j.] [ 7.0.k.M.4.x z u t u t 0 , > * * .                       $ $ * $ , , , , < t y f v ' h.y.w.7.Z l | s.f.h.9.5 O ",
"@ & 0.B.B.B.l.[ [ 5.0.k.M.4.x x u u u t 0 , , * $ o   .                 + * * * * , , , < 3 e u f x [ l.f.1.=.Z v ..s.s.h.9.5 O ",
". # 0.B.B.B.j.[ [ 5.q.k.M.4.x h u u u t 5 , , # $                   X     $ * * $ - , , , < t q f z  .N.j.' ^ n k | s.s.p.9.5 . ",
"o # 7.B.B.B.l.[ [ 5.q.k.M.4.v z u u t t 3 2 , # $                         $ $ * $ , > , , 2 q t f z  .m.j.' ' b c  .s.j.s.w.5 O ",
". # 8.B.B.B.c.] [ 5.q.k.N.4.z h u e 3 , , , , * $                             $ $ - , , , , e e z z  .n.x.0.5.D l $.C.C.C.b.q O ",
"@ % 0.B.B.n.c.] [ 5.0.k.m.4.z h u u 3 , < , > # $                             $ $ , , , , , e u f z } N.x.q.0.C v &.C.Z.C.b.0 o ",
". @ ,.c.c.c.g.W [ 5.q.k.M.4.z z u u 3 , , , , * * *   @             +         * = , 2 3 y y e u x v o.m.x.q.7.F v ..z.z.c.p.5 @ ",
"O @ :.h.h.g.g.] [ 5.0.k.M.4.z h u u 3 , , , , & & *                           * $ - , 3 e y e e f c } M.x.0.7.F v  .h.d.s.5.5 . ",
"O & ;.h.h.h.i.] [ 7.8.k.M.4.v z u u 3 < , , , * * = * $                       * $ , , 3 u u e u j v  .N.b.0.7.E G &.b.x.x.f.5 @ ",
"O @ >.h.h.g.9.Q [ 7.7.k.M.4.z z p t 3 , , , , * & * @ @                       * $ , , 3 e u e t h z  .M.x.q.7. .] 8.C.A.C.m.0 . ",
"O & >.h.h.c.9.` ` 5.q.k.m.4.z z u u 3 , , , , # $ * @ +                       * $ > , 3 t u q e f c  .M.x.q.0. .] 8.C.A.A.m.5 . ",
"O * >.h.h.h.6.v v 2.0.k.m.4.z h u u 3 , , , , $ $ * @ @                       * $ > , 3 t u t e h j  .m.x.0.0. .] 8.C.A.A.m.0 O ",
"O # ;.h.h.c.6.v b =.q.k.N.4.z h u u 3 , < , - = * * * o                       @ $ > , 3 w t w t h x  .M.b.w.7...] 8.Z.Z.Z.m.0 O ",
"O $ ,.h.h.h.6.l x ) } t.M.4.z z u u 3 , , , , # * = $ @                   @ @ * $ > , , < 3 q e f x  .M.x.w.7...] 8.Z.Z.Z.b.0 . ",
"O @ ;.h.h.h.6.l v Q / 8.N.4.v z u t 3 , , , - # * * @ +                   * $ * * > , , , < w t h z  .M.x.w.0...] 8.Z.Z.A.m.5 . ",
"@ # #.9.i.9.:.c v ~ ) 1.y.&.v z p t 3 < 3 < , = * = * @             .   + * * * * > > > < 2 e t h x  .M.x.e.7...] 9.Z.Z.A.m.5 @ ",
"O @ | 3.,.,.+.l v Q ( @.<. .c h u e 3 , , , - # $ * $ @                   $ @ $ $ * $ = , 2 t t f z  .M.x.w.7. .] 8.C.A.S.m.0 . ",
"O $ | ,.6.,.+.l v Q / @.<...c h u e 3 , , , , = * * $ o                   @ @ @ $ * * = , 2 q y f x  .M.x.w.0...] 8.C.A.S.m.5 O ",
"O # | ,.6.,.+.c c Q ) @.<. .k j u u 3 , < , - # $ * +                         @ $ * $ = , 2 w q h z  .m.x.q.7.| ] 8.C.A.A.m.0 O ",
"O #  .,.,.,.+.c c ~ ) @.4. .v j u u 3 , < , , # $ $ @                         @ $ $ @ * , 2 w q f x  .M.x.w.8. .] 8.C.A.A.m.0 O ",
"O @ } 3.6.,.+.v v W ( @.<. .z h u y y q 5 , , , > = * * @ X                 X + $ $ $ = , 2 e y h c  .M.x.w.7. .] 8.Z.Z.Z.m.0 . ",
"O @ } 3.3.3.+.k v W ) @.<. .z h y u t y 0 , , , , = # = $ @                 X = + = $ = , , e e f j  .M.x.w.0. .] 8.C.C.Z.m.0   ",
"O # | 3.3.3.+.l v ^ ( @.4. .x x u u u t w 2 , , , - * = $ $                 X + = - = - , 3 w e j x  .M.x.w.7...] 8.Z.Z.Z.m.0 @ ",
"O # | 3.3.3.+.l v Q / @.<. .z z u t u t 3 , , , , = # * + X                 X $ $ $ + - , , w e h x  .M.x.w.0...] 8.Z.Z.Z.m.5 . ",
"O # { ;.:.:...j h T Q o.:.[ f d y t t t 0 , , , , = $ * @ @                   + + $ $ = , 2 w y d f ` f.t.=.$.E R @.k.k.k.r.5 o ",
"O O ~ +.+.+._ s a F J [ O./ s a u q u y 3 , , , , - @ * @ @                   + = $ $ = , 2 w y a a H O. .K J f s U O.+.O. .< O ",
"O # ( +.%.+.] s s F J ' +.W s a u t e t 3 , , - , = # * @ @             X X + + $ = $ > , , w w p a F O. .I J d s H O.+.+.| < O ",
"O & ~ +.%.X.] s s A G [ +.W a a t q 3 , < , , * * = # * $ @             + + $ $ $ > > , , , e e a a H O...I J d s H O.+.+.| < O ",
"O & / +.+.+.[ a s F J ' O.) a a i q 3 , , , , # $ = $ * +                 + = = $ , , , , , w u a a G +...P J s s P O.@.+. .< O ",
"O O / +.%.@.' s s F L ' @.) s s u u 3 < 2 2 , = = = = = +               X + = > - 2 , 3 0 w u u a a G +.X.I P f s P +.+.+...1 @ ",
"O & / +.+.+.[ a a F J ' X.) a p y t 3 , , , , # $ * $ * $ +             X $ = , , , , 3 w q q q a a J +...P F f a R +.@.+.| <   ",
"O & ! | ....( i p N A ( ..Y i i u t 3 , , , - = * = $ * + +             X $ $ , , , - 3 w q q y i i D ..' J A p 9 H ......[ < O ",
"O # I _ ' ' T 4 8 m C T [ H 6 6 r t 3 , , , : $ * = $ +                 X + = 2 , , , 3 t e u t 9 8 x ' ( C N r 8 V ( ' ' ^ , o ",
"O % I _ { ' T 8 9 m N T ' K 8 4 y t 3 , , , , $ * * $ @                 X + = , , , , 3 t u e t 0 8 M ' / C m r 8 N ( ' ' ~ , O ",
". @ I ' ' ( T 8 8 m N ! ' K 6 5 t t 3 , , , , $ * * @ +                 X $ = , , , , 3 t e w q 9 8 x ' / C V 9 4 N ( ' ' ~ < O ",
"O # L ' ' ' T 8 9 m N ! ' J 8 8 t q 3 , < , , * * * * @             X   X $ = , 2 < , 3 e u q y r 8 M ' / C N r 6 N ' ' ' ^ < O "
};
