/* XPM */
static char *_ac01e2a538f49f3b178cf53b076e55f7SJX41Ke7q0oFKbt[] = {
/* columns rows colors chars-per-pixel */
"64 64 175 2 ",
"   c #040505",
".  c #080707",
"X  c #050807",
"o  c #040709",
"O  c #060A0B",
"+  c #090C0D",
"@  c #0F100F",
"#  c #070C11",
"$  c #0B0E11",
"%  c #0E1113",
"&  c #0F1419",
"*  c #111416",
"=  c #141817",
"-  c #121619",
";  c #151A1C",
":  c #191D1E",
">  c #1D201E",
",  c #161C21",
"<  c #191E21",
"1  c #172123",
"2  c #1C2224",
"3  c #1E252A",
"4  c #1F292D",
"5  c #1F2A30",
"6  c #212425",
"7  c #2B2A26",
"8  c #21262A",
"9  c #242A2D",
"0  c #292C2C",
"q  c #302E29",
"w  c #2F302C",
"e  c #242D32",
"r  c #292E33",
"t  c #263035",
"y  c #2B3236",
"u  c #263239",
"i  c #2C353B",
"p  c #2E383D",
"a  c #313435",
"s  c #31373B",
"d  c #383739",
"f  c #333A3D",
"g  c #393C3D",
"h  c #2C3640",
"j  c #2F3A41",
"k  c #333C43",
"l  c #393E42",
"z  c #343F49",
"x  c #383F48",
"c  c #364046",
"v  c #3C4245",
"b  c #36424A",
"n  c #3B444B",
"m  c #3E494F",
"M  c #374550",
"N  c #3B4651",
"B  c #3D4A52",
"V  c #414545",
"C  c #464847",
"Z  c #42474A",
"A  c #444A4C",
"S  c #494D4E",
"D  c #50524E",
"F  c #424D54",
"G  c #494E52",
"H  c #424F59",
"J  c #435157",
"K  c #4D5254",
"L  c #45535B",
"P  c #4A555D",
"I  c #4B585F",
"U  c #515455",
"Y  c #595A54",
"T  c #515659",
"R  c #545A5C",
"E  c #595D5E",
"W  c #5B605F",
"Q  c #65635C",
"!  c #465661",
"~  c #4A5661",
"^  c #4B5A63",
"/  c #4A5862",
"(  c #4D5860",
")  c #4E5A63",
"_  c #4D5962",
"`  c #4F5C61",
"'  c #4F5D63",
"]  c #485964",
"[  c #4A5966",
"{  c #495A67",
"}  c #4B5B66",
"|  c #4D5C65",
" . c #4E5C67",
".. c #4D5D67",
"X. c #4D5A63",
"o. c #4E5D69",
"O. c #4E5E69",
"+. c #4E5E69",
"@. c #535D64",
"#. c #595F61",
"$. c #515F6A",
"%. c #515F69",
"&. c #4F606C",
"*. c #4F606B",
"=. c #556065",
"-. c #5E6366",
";. c #5C6264",
":. c #516069",
">. c #53616B",
",. c #52626D",
"<. c #53626E",
"1. c #53626C",
"2. c #5F6468",
"3. c #5B656B",
"4. c #5A686E",
"5. c #5D686E",
"6. c #536673",
"7. c #546670",
"8. c #566671",
"9. c #596771",
"0. c #576A75",
"q. c #576974",
"w. c #586876",
"e. c #5B6A74",
"r. c #576C78",
"t. c #5E6E78",
"y. c #5D6D7A",
"u. c #5C6D79",
"i. c #5E707C",
"p. c #616666",
"a. c #6D6E67",
"s. c #616669",
"d. c #656B6F",
"f. c #646A6D",
"g. c #6B6F6D",
"h. c #6B6C6C",
"j. c #6F706B",
"k. c #75746C",
"l. c #656D72",
"z. c #686F73",
"x. c #696E73",
"c. c #616E79",
"v. c #647074",
"b. c #687075",
"n. c #6F7676",
"m. c #6A7275",
"M. c #62707B",
"N. c #63737D",
"B. c #6C747A",
"V. c #6D787C",
"C. c #717676",
"Z. c #7B7B75",
"A. c #72777A",
"S. c #747B7C",
"D. c #747A7E",
"F. c #7D7F7D",
"G. c #7E807E",
"H. c #82827D",
"J. c #647681",
"K. c #657884",
"L. c #697A83",
"P. c #697E8A",
"I. c #777E81",
"U. c #747C82",
"Y. c #787F83",
"T. c #787E82",
"R. c #768085",
"E. c #7B8181",
"W. c #7C8B93",
"Q. c #878983",
"!. c #80898D",
"~. c #84888A",
"^. c #898C8C",
"/. c #848C90",
"(. c #8E9192",
/* pixels */
". % k 8 n t.,.,.>.$.O.O.O...} ^ F c s o       o k &.} ~ n * % L ,.~ P L H F l O L ( ( % B } z % + + + - e e e 9 4 4 3 2 : + 8 t.",
"+ * k e e k k i i i i i i i i u t e < o     X   k 6.} ~ n ; % L O.B m m m m k O F c x $ B ^ l +   *   O $ $ $ + + + + + +   % e ",
"L L k i y * O ; + i N H J N n c k 4 o 8 i i r 2 k B k e 2 $ O L ..B n n c f 9 o l i y + ; # + O f 2.K K K C V $ , H H F F F F H ",
"c c i i y * - c < J r.0.7.B b c k e O ` M.<.( L H c i $ : p p k c i y t y : 2 v V c c g g g g * K m.z.z.f.;.T * 4 w.O.....^ ^ ^ ",
"8 * % % % O ; c : l ( L n u r e e 9 o ` >.P P P F k y $ e 4.P 4 3 e e 9 4 % l /.!.R.Y.I.D.n.h.: K G G S S A S % 2 >.L J J J F B ",
"o $ % % % O * 0 2 2 < ; % $ $ $ $ $ o L c t 8 9 8 2 * O 2 i e * $ $ + + + o 6 K v f f d s d a * s r 9 6 2 2 2 ; c n 5 4 3 3 , * ",
"O f n c l * v n.m.E * 2 l c c l l l l k 9 + v #.#.K * y P L n k + $ ; ; ; % l l.V a +   2 L L F H n ; - 2 2 2 F 6.<.%.%.` ` L c ",
"O k n n i * v =.T T ; s 4.1.1.c c k j y e O T I.B.K * 4.9.I B m % ; p p i 4 @.W.s.S * 2 t y.9.7.} H < B w.9.7.1.<.^ N N n k i i ",
"+ l n c i * v =.T K ; 8 n n c i i y y y e O T m.f.G & 4.~ F B m $ ; h i i e 1.L.K g ; 4 u q.J B N m ; B 0.7.7.<.,.P n n n r $ + ",
"f.l.s.R S * v b.;.S ; O O O O + + + * * % O 9 y r r * P c s i y + y t.t.c.e.1.J ;   2 t & $ $ + + + # m ^ ~ P L P B k f f 3 X 9 ",
"-.R K S Z * 2 y 0 6 $ X X         % s.f.2.;.;.;.2.;.R R s o o X   i >.^ P H H F * O l.4.%.%...( ( I P y # O O O O O O     X   n ",
"S A A Z v * - ; * o S -.;.;.#.R v % l.2.-.-.-.;.;.#.R R a X s f f A i 3 ; * * *   O c.P J L H J H H H y & n n y O V G v ; 8 P N.",
"$ + + O O $ l v y O V T K K G S d $ K A Z V V V V V V V 0 O 3.4.3.3.c y e 9 e 0 9 * 3.P J J J H H H H y , %.^ k O t.N.#.6 p P.e.",
"f 9 * * n n n n n V v 8 O 2 f i t 2 : ; ; - * X + $ < y y $ 1.1.%.%.%.%.X.X.( ^ ( 9 k k i i i i y y r < & k f 3 o 7.N.@.6 p K.7.",
"R k ; 2 U.V.B.z.f.f.R d 9 J.K.N.q.>.` I P P F O R P <.w.$.3 P =.I ~ P P P P P L L 8 * -   X % g g g g f s s a y 0 F H s = i K.7.",
"r r - 2 B.s.;.;.;.W S 0 c J.q.$.( ( ( ( I P F O 4.1.O.} J e 9 r i k k k k k k k k 9 f l O + g m.f.-.;.;.#.E R R T 6 O * $ p J.1.",
"3 3 % * Z v v g g g 0 * l N.7.%.( ( ( P L L m O 1.1...^ J 9   2 P ` ( ( ^ ^ ( ( P P B c + ; D.B.s.#.#.R R R R R U 2 % e < j J.,.",
"y e y y $ X X X   O 0 e L i.7.$.( A k s s s y   n n l y 8 * X y ..` ` ` ^ I P P L J c e O ; ;.R K A A V V V V v g * + 1 - i ,.J ",
"<.O.P L * 2 y e 3 2 v.0.0.6.,...^ r % n Z n v v v : o o X * + % 2 2 < : : : ; * * * * ; ; 9 K 9       X X O O + + + e =.l e $ O ",
"B m m n $ 8 j i r 1 M.>...O...( ( 9 : B.2.;.;.#.#.s < ; O f f 9 $                   f t.e.9.<.c % e e 2 + ( ^ ^ P P L k i i y y ",
"$ + + O   6 s y 9 + % % $ + + O O   ; T c l l f g r 8 3 O k k i r < $ X             i ~ H H F p & y y 9 $ ( I P P P H i y y r r ",
"O < s i i s f f f y e 9 8 < + 2 e e e * y k f f f f k k i J H B B k ; % y i i i i i p p p p i i f B B n 4 ; + + + + + % ; & $ + ",
"A 7.X.L L L L G F F F F n y * i n n i * ( 1.>.>.>.>.>.$.$.....( ( c ; 3 9.9.7.7.,.,.,.,.>.>.>...........P < * 0 0 < n c.e.F c l.",
"7.^ L H F c i i i i i i y t & y f i 9 * ( >.>.$.......` ..` ^ I I c ; 8 7.,.,.,.*.*.....X.^ ^ ~ P P P P L : ; l c 2 $.y.7.B c @.",
"7.~ L H F n < * % % i F H H c H L H m l n k p p p i i i i y y y y 2 $ ; c k j j p p p i i i y y y y y y r % : c c 2 O.t.7.B l f ",
",.P H F m s * % % O F 1.1.<.<.,.,.,.>.$.k - X         X X X   X X y J H n k j f k i 2 * X X X             X : c c < X.u.7.B c f ",
"B c k j < ; 9 9 6 * F O.O.....X.} ^ ~ ~ N < X + + + + O       2 H ,.7.7.<.>.>.>.$.$.c y X X X             X : c k < X.w.<.m c f ",
"$ $ $ $ O f z.;.R : l F F B m m m m n l i ;     X X X         i K.7.,.>.%...........c y X O O         * * 2 k N m r P L i 9 8 6 ",
"        X i P v d - % < < < < , : ; - % O X X X X X       X X p K.w.O...( ( ^ ( ^ ^ l y + y 9 9 9 ; + e.e.e.e.e.e.e.H x o ; : : ",
";.#.#.#.T i O + k ^ >.,.1.<.>.$.%.%.^ H ; : #.G C ; 9 8 8 8 2 n N.9.>.` ^ ( ( ^ ~ ~ k 9 % m c j i 2 $ l.,.$.%.X.X.P F l % f.B.m.",
"l.;.R R P n X 8 >.,.,.,.>.>.^ L L L H H ; < s.T S 9 i.t.q.>.J P 9.7.9.( I ( I P P A O o O 2 ; % ; $ + 9 3 3 2 2 2 : ; ; % 2.b.=.",
"R R R P K c   3 ^ P H B n n k k f i i 9 $ 2 s.T S 9 i.,.! B H p ; $ $ O O O X     % < < ; * + F c.( ~ P k 4 3 , ; ; - * ; y y y ",
"2 < , , * $   % ; * * * % % + o O   < 2 2 y 2.T S 9 i.6.P H B m n - 2 9 9 8 8 8 2 3 e 4 2 2 * L c.X.[ ~ ~ L L k i i i i i *     ",
"< 2 2 < % * P 9.=.%.@.( ( P y % 8 + A.Y.D.s.A g d 2 t.,.P B B n n , m ( ( X.( ( ( N n n f * 2 l l f 9 i h h h h j j j j k 9 % O ",
"1.1.$.( t i y.7...P B B B l & * 2 % d s a ; < 9 9 e P O.H n n c c j P ....X.X.( ^ ~ L F n + A.m.l.R O I %.X.X.( X.X.X.X.X.P 8 8 ",
"P P L L 0 y w.,.H n y t 3 % 9 (.^.Q.H.p.U @ B 0.7.,.,.} } >.$.%.....( P L L L H H H n n f O A.z.s.T O @.%...X.^ ^ ^ ~ P P L 8 8 ",
"m n n c 2 < l k e 9 8 2 ; + V ^.G.Z.Z.Z.k.* n } I P P P L L J H H H m c s i y y r r 9 9 8 + V f y 9 o p p i y y y y y y r e * + ",
"$ $ + + + X O O X X X   - 6 ;.~.Z.k.k.k.a.* 3 3 2 < < , : : ; - ; - % o   o o   X   X X y n i e : + l k 2 O               X X o ",
"m m m m m n n n k i y   G !.~.F.Z.Z.Z.H.Z.* + $ $ $ $ + O 8 i i i y y 9 ; % c N N n c y y j i i 2 * 4...l < 8 8 3 3 3 8 O : 2 3 ",
"$.$.......( L H H H n   K I.m.h.h.h.h.h.;.% r l k k j p 1 L w.0.0.,.*.N y * +.6.7.O.~ L e e 9 4 : * <.X.k 2 e e e e e 9 O r i i ",
"( ^ ^ P P P P F B B c   ; 2 2 < : : : : ; O y b j j j i 1 B ,.,.} ^ B i 4 % N B n f i i 3 3 3 2 ; * c i % < e 9 2 : ; ; $ t i i ",
"e e 9 3 2 2 2 2 2 * % % 3 3 3 2 ; * % o l n L ^ P L L F k % - * * % ; k p e , & % % O C K G G G G S A A A G K G S + 9 n H L L L ",
"( P P L L L L J F e 3 2 q.7.1.,.L j 8 X $.$.N n n b c c f O u.N.L l - m n c c p i 0 + f.B.z.l.l.f.d.f.f.f.f.s.2.p.$ H 7.*.O.O...",
">.>.1.1.>.>.>.%.%.n l - N n k k j i 2 X @...N n n c c c f O w.i.H l - n u e e 5 9 $ 0 l.l.-.;.;.;.;.;.E E E E R E $ m %.^ P P P ",
"P P P P P P L H H n k % e e e 9 3 2 ; X f y e 9 3 2 2 2 :   P ,.j 0 % f 9 3 3 3 2 O c 4.2 + + O + O + O O X X + O s n k < 3 3 3 ",
"F F F B B B N n m n f o < 2 2 2 ; o a V A n l % 9 l l l l l Z m l 2 + 6 2 2 2 < < < l T f * X X X           * t.t.K.N.m O p k k ",
"9 9 9 2 2 2 2 < < : - o r i i i e O T d.s.s.p.6 G D.B.B.B.B.B.x.l.v 2 B.B.m.m.m.m.l.l.l.d.9 o O + + + O +   ; P.0.,.P n O 9 e 4 ",
"$ $ $ O O   X     X * ; k k k k i ; K R T U S : V f.-.-.;.;.;.#.#.g : B.V.f.s.s.-.-.-.;.E 6 ; y r e e e 0 % y L.7.$.L k o : , , ",
"K K K K G 6 % y 2 2 f.@.@.#.#.@.R R K y % * * % : 9 8 6 2 : * * ; ; 2 F G K G S S S S v g ; 3 c l k k k k 9 l L B c r $ * m m n ",
"-.;.;.;.;.9 % l p y l.L L L K K G G V c X < m.m.m.m.m.l.l.S + ^ 1.%.( P i o X X X X X X X % q.u.e.w.q.q.q.9.@.O X X X $ P t.w.7.",
"R T T T K 8 % v i 9 n y y y y y r 0 8 6   : ;.R R T T U U v $ c.( P H n e O 3 9 3 O k k y * t.u.w.w.q.q.9.>.m O 9 e e i 7.P z z ",
"; ; ; ; % % % s.f.#.s % w q 7 * $ 2 2 < : 9 R T T l 0 9 6 % $ c.X.~ H n e + k b k - ,.7.P < t.7.P L L H H H l O $.0.*.} ! H t r ",
"%.%.( H i e % f.m.2.i 0 F.k.Q a l V.V.V.B.m.z.d.#.a + * * * $ c.~ L c 2 % + k c i , ,.,.P ; 4.$.J H H H F F s O X.,.} ~ ! H e e ",
"j i i y y 0 % A v v 9 r E.j.Y 0 v l.5.5.5.2.3.;.R a * p p y $ c y e 3 9 c m ( X.L B ,.,.O.b r O $ % % % $ O + $ s 9 2 2 ; * - : ",
"e 9 3 2 2 < O * + + O 9 R D S 0 s @.T T P K G G S 9 * i i e o X     2 t.y.u.w.w.w.7.7.,.>.B k $ K 2.;.;.R 9 y h.z.p.E R 2 + m.A.",
"+ O O   o O O * t.t.9.^ y O O + + O O O X         X ; k k k k p i 0 8 t.w...} } ^ ^ ^ P P N f + T m.d.f.;.0 0 h.;.E R A > + A.B.",
"U K a O ;.T K 2 L.6.&.*...} ^ L c i i i 2         o l 1.,.,.>.*...^ u ^ F n n n n n n c k s 8 + ; < : * * O 9 V 6 6 6 6 % O C.n.",
";.E g + f.R T 2 @.B B B B B B c k i i i r   * < < y P L H k c c c c 4 , O o o o o     o + : 0 A l.t.e.1.1.@.1.l O + + + + + v 0 ",
"C C 0 + R T T y * t t t e e e e e e e y 9   l <.<.1.>.~ n O 9 e e e < %   X X           s N.N.N.q.q.q.q.9.1.7.F + i k k k p 2 O ",
"9 8 6 9 T K Z f % 9.1.>.>.>.>.>.$.....J 2   l 9.7.1.O.L c o 9 e e e & X X   X X X X X X l K.N.e.1.4.1.1.1.<.1.B O k c c b k 3 * ",
"t.t.t.e.q.4.J s % t.,.>.$.$.O.O.....} P &   9 c k j y e 3 o : ; ; ; +   : 2 2 , * * * * 0 P F m m n n c c c l 2 % e e 9 4 3 , 2 ",
"e.w.w.q.9.1.L 6 + m c l l k k k f p i r 4 c F n O e i * : l S A V V 2 3 =.1.I n e e e 0 * + X X X     o X o X X n 1.1.1.,.>.$.O.",
"! P L L J J B O : y r * o + + o       O ( <.L L $ ^ 9.e r z.z.f.;.;.0 y 3.( n f 0 R D.D.p.V O $ O % @.e.1.i O % H &.O...} } ! P ",
"c c k k k p r $ x.D.f.g ; k j y % s 4.1.1.} B H $ P >.2 r l.l.2.#.R 9 y P n c s 9 K z.f.T V 9 4.F 2 %.K.=.e * 1.H N M b c k 5 u "
};
