/* XPM */
static char *_1f9166a1f6246b585e21ee0d2665af8ZhmfGy6itxXiPXGO[] = {
/* columns rows colors chars-per-pixel */
"64 64 229 2 ",
"   c #0D0A0B",
".  c #0B0906",
"X  c #130C0B",
"o  c #1A0F0D",
"O  c #110806",
"+  c #16100E",
"@  c #1A110D",
"#  c #161212",
"$  c #1B1412",
"%  c #1E1916",
"&  c #1B1718",
"*  c #1D1A1B",
"=  c #110F10",
"-  c #21130E",
";  c #221613",
":  c #241916",
">  c #2A1C16",
",  c #241C1A",
"<  c #2B1E1B",
"1  c #281713",
"2  c #311D15",
"3  c #311F19",
"4  c #25211E",
"5  c #2C211D",
"6  c #34231D",
"7  c #3B251D",
"8  c #3D2A1F",
"9  c #221F21",
"0  c #262222",
"q  c #2C2423",
"w  c #2E2B2C",
"e  c #2D2826",
"r  c #332623",
"t  c #3A2721",
"y  c #342925",
"u  c #3C2B24",
"i  c #332C2B",
"p  c #3A2E2B",
"a  c #302628",
"s  c #3C312D",
"d  c #3A302B",
"f  c #322E31",
"g  c #363233",
"h  c #3B3433",
"j  c #3C3739",
"k  c #3D393B",
"l  c #2E2A32",
"z  c #432A1E",
"x  c #41271D",
"c  c #432D24",
"v  c #4A2E23",
"b  c #422E2A",
"n  c #4B3226",
"m  c #43332C",
"M  c #4A342B",
"N  c #48362A",
"B  c #52352B",
"V  c #543A2D",
"C  c #5C3B2D",
"Z  c #553526",
"A  c #443632",
"S  c #4A3732",
"D  c #443934",
"F  c #4C3B34",
"G  c #433C3B",
"H  c #4C3D3A",
"J  c #543C33",
"K  c #5B3E33",
"L  c #513F39",
"P  c #633D2B",
"I  c #623E31",
"U  c #603F3A",
"Y  c #69391E",
"T  c #4D423C",
"R  c #5C4335",
"E  c #54423C",
"W  c #5B443B",
"Q  c #594539",
"!  c #67422E",
"~  c #76452C",
"^  c #644333",
"/  c #6A4433",
"(  c #6B4A36",
")  c #63453B",
"_  c #644B3E",
"`  c #6C4A3B",
"'  c #674737",
"]  c #744C36",
"[  c #734D3C",
"{  c #764A36",
"}  c #6F503B",
"|  c #74533D",
" . c #7C553D",
".. c #7D543B",
"X. c #423D40",
"o. c #4D4443",
"O. c #4C4649",
"+. c #4E494B",
"@. c #454143",
"#. c #544543",
"$. c #5C4641",
"%. c #564945",
"&. c #5C4A44",
"*. c #544C4D",
"=. c #5B4D4A",
"-. c #534749",
";. c #5E504D",
":. c #544E51",
">. c #5A4F52",
",. c #555153",
"<. c #5B5354",
"1. c #5B5559",
"2. c #5D595C",
"3. c #644C43",
"4. c #6C4E43",
"5. c #624E4A",
"6. c #614742",
"7. c #744F40",
"8. c #6D5245",
"9. c #64524B",
"0. c #6D544B",
"q. c #6B574B",
"w. c #745344",
"e. c #7C5544",
"r. c #765A44",
"t. c #7D5A45",
"y. c #73564B",
"u. c #75594D",
"i. c #7B5A4B",
"p. c #7A5649",
"a. c #625453",
"s. c #6D5650",
"d. c #655954",
"f. c #6B5A53",
"g. c #635A5C",
"h. c #6B5C59",
"j. c #615458",
"k. c #745C53",
"l. c #795D53",
"z. c #715C57",
"x. c #6C615E",
"c. c #7A6156",
"v. c #74625C",
"b. c #7B645B",
"n. c #7C665C",
"m. c #79614B",
"M. c #635D61",
"N. c #665F66",
"B. c #6B6366",
"V. c #6D656A",
"C. c #6E696D",
"Z. c #656166",
"A. c #726665",
"S. c #7C6B63",
"D. c #72676B",
"F. c #726A6C",
"G. c #7B6B68",
"H. c #7D716D",
"J. c #6F6B70",
"K. c #726C71",
"L. c #7C7474",
"P. c #834B2E",
"I. c #824E33",
"U. c #85543A",
"Y. c #88573A",
"T. c #9A5731",
"R. c #965937",
"E. c #99623F",
"W. c #A2643D",
"Q. c #855D4D",
"!. c #895F4E",
"~. c #875C44",
"^. c #855F50",
"/. c #885F50",
"(. c #856146",
"). c #8C6345",
"_. c #86614D",
"`. c #89614D",
"'. c #8E694E",
"]. c #996643",
"[. c #946B4D",
"{. c #9C6E4C",
"}. c #976748",
"|. c #9D714E",
" X c #856251",
".X c #8B6453",
"XX c #8C6A53",
"oX c #82695D",
"OX c #856958",
"+X c #936C53",
"@X c #956B5A",
"#X c #956A57",
"$X c #8E715A",
"%X c #9C7354",
"&X c #95725B",
"*X c #9C765A",
"=X c #9E795D",
"-X c #977254",
";X c #A5714D",
":X c #A57954",
">X c #A1775A",
",X c #A27A5C",
"<X c #A57753",
"1X c #A26A45",
"2X c #846D64",
"3X c #876E66",
"4X c #8C7266",
"5X c #85716A",
"6X c #8B756B",
"7X c #8F786E",
"8X c #847067",
"9X c #9E7C62",
"0X c #927A6D",
"qX c #90776E",
"wX c #8D7971",
"eX c #837471",
"rX c #937D73",
"tX c #987F74",
"yX c #A37E61",
"uX c #A5805F",
"iX c #958177",
"pX c #9B8176",
"aX c #948179",
"sX c #9A847A",
"dX c #9C816C",
"fX c #A58264",
"gX c #A78569",
"hX c #B3866B",
"jX c #B4886C",
/* pixels */
"rXrX2XA , d.F.K.K.K.K.1.* < K K K p 5 v.pXpXpXpX5X0 & g.K.J.J.C.C.2.$ D 6.3.H # l K.K.K.K.K.Z.X.2 R.T.W.<X<X<X<X:X<X[.6 v ` K t ",
"rX7Xk.s ; <.A.A.V.V.<.*.e X X X X < 5XpXpXpXpXtX&.# ,.V.C.C.C.C.C.V.1.q S 3.$.q e K.K.K.K.V.2.G 2 R.T.W.;X;X;X<X:X<X:X8 c ^ 7 t ",
"6XoX0.u % =.5.5.5.=.=.i + N m.m.% d rXtXtXpXpX6XE   1.C.C.C.C.C.C.C.C.G 0 H 6.y q A.F.K.J.N.j r ~ R.T.T.T.T.R.;X<X<X>X8 t V > z ",
"2X8.8.y $ #.F y y y y A R _.uX-X% h rXrXrXrX3Xy.y * M.C.C.C.C.C.C.C.C.2.0 q $.y 4 g.g.M.M.2.w 2 R.T.T.T.T.T.T.1X;X;X%X8 t V > z ",
"8.8.8.r     $ q q q r  XuXuXuX'.$ s 4X4X4X3Xk.$., w V.V.C.C.C.C.V.V.V.M.9 $ #.r , 5.;.;.;.=.y 2 I.P.P.P.P.P.P.P.P.../ > 5 b > v ",
"4.4.3.6 * X.d.0X0X0XdX=X-X+X+X(.$ s 3X4X3Xl.$.m % q B.V.V.V.B.B.j.j.<.+.* X q % + r e e e e % o 7 7 7 7 7 x x x x 7 $ # # X M U.",
"< < < # e G.OXXXXX_.(.t.t.t.t.w.@ r 0.u.8.W b < s : o.>.h.d.=.%.p s s e -.G 4   w G G G G G k h h g i = e d h h h G G.S.G.i ! ].",
"$ $ $ $ y s.8.w.| | ^ 6 > > > :   5 J R J b 6 y.0.5 @ p H F F m X X X %.wXeXx.& d.aXaXaXaXaXwXL.L.L.V.& v.wXwXwXwXwXwXwX5Xs ! ].",
"=X=X=X'.Q + X X X X > Q Q Q Q Q Q r X r $ b  X^.Q.Q.w.< @ $ $ y wXwXwXwX2Xv.o.$ m E E E 9.s.9.=.=.=.@.# v.rXrX7XwX7X7X7X5.5 n { ",
"(.'.+XC 6 m F F J R r.=X=X=X*X&XQ.w.r X J p.Q.Q.Q.Q.` > #.v.b.S.wXwXwXwXv.%.$ m r $ % $ F &.A q q q 4   h.5X6X6X2Xb.v.k.&.5 t P ",
"@ u 6 6 XX=X,X,X,X9X=X=X=X+X`.Q.w.U r 6 [ Q.Q.Q.Q.w.^ : 9.6X6X6X3X2XoXs.y 4 3.i.y.4.4.F $ % 5 p u p u p < , &.9.3.&.W : @ X + 6 ",
"N < : w.%X=X,X=X@X.XXXXXXXe.[ ( ^ 6 X t | Q.Q.Q.p./ ^ 1 &.b.b.b.z.u.9.m N R Q._.Q.Q.Q.` 6 X V w.Q.Q.Q.p.R p 5 r q q q w >.*.*.G ",
"u.0.5 t | XX+XQ.J 6 : : : : : : ; p e , K w.w.4.C C 7 o 5 i m W W Q t X ` Q.Q.Q.Q.Q.Q.` n X K e.!.!.!.!.Q.w.V F F m $ *.eX8XG.%.",
"l.l.J : n I C n y i w w w w w w w *.*.0 6 M c 7 6 8 N m m u 6 r u u 5 @ 7.Q.Q.Q.Q.Q.Q./ n X K e.!.!.!.Q.Q.Q.Q.Q.Q.p.t D F F D m ",
"u.l._ b ; > : 4 Z.F.F.F.F.F.F.F.F.F.F.g.$ , y d m ^ gXgXgX$X` 6   * $ : 7.Q.Q.Q.Q.Q.( / v X K e.!.!.Q.Q.Q.Q.Q.Q.Q.p.) $ ; : $ u ",
"u.y.) M $ + + o.A.A.A.A.A.A.A.A.A.A.A.A.% s &X9XfXfXgXgXgX+X] V X H s @ 4.Q.Q.Q.e.` / / v X K e.!.Q.Q.Q.Q.Q.Q.Q.Q.w.B @ E W y u ",
"u.) J y O.J.,.$ a.s.k.z.z.z.z.z.z.z.z.f.+ m %XfXfXgXfXfXfXXX( V X H p @ ` w./ / / ^ ^ ^ v   K e.!.!.Q.Q.Q.Q.Q.Q.e.C v : 6.J < u ",
"y.Q < G C.J.1.k , E s.k.k.k.k.k.k.k.k.s.+ p %XfXfXfXfXfXfXXX! n X H p + V K C C C C C C u   K e.!.Q.Q.Q.Q.Q.Q.Q.[ B X $.0.J < u ",
"R J , h 2.1.*.+.X m E E W k.k.0.6.6.&.&.$ c -XyXfXfXyXyX*X| Z c   $ X X @ @ @ @ @ @ @ @ X   n ' 7.e.e.e.e.w.[ ` ^ n X 6.8.M : y ",
"< , # & 9 9 , , X : : : m F F F F F F F : c -XyXyXyXyX=X'./ 3 6 3.3.3.3.) W W W W W W W W F $ c I ^ I I K K K C K b X M B c : 6 ",
"< K K K K K K K J J J J < X # % % % $ $ $ t ).[.[.[.[.).~./ ; y @X@X@X#X X_. X^.^. X XQ.Q.i., X @ @ @ @ + + @ @ @ X   @ @ @ X X ",
"y  X`.`.`.`.`.`.`.`.`.p.J : i v.S.S.S.S.v.< v { { { { { / Z > _ @X@X@X.XQ._._.Q.Q.Q.Q.e.w.J m F W 3._ W , p _ _ _ _ _ _ _ 3.3.3.",
"r Q.Q._.`.`.`._._._._.p.` 3 s 3XrXiXtXpX7X%.< z z z z z c t ; 4.#X#X.X XQ.Q.Q.Q.Q.Q.Q.^ 7 t Q _.=XyX+X_.; R =X,X,X=X=X,X=X=X9XdX",
"6 t.Q.Q.Q.!.!.!.Q.Q._.p.' 3 s 2XrXtXtXtXtX5X, @ < : : : $ X 6 w.`.Q.Q.Q.Q.Q.Q.Q.Q.Q.w.6 ; _ ^._.+X%X`.e.O R )... .| | | | } 8.k.",
"> / [ e.Q.Q.Q.Q.Q.Q.Q.e./ 3 s 2XrXtXtXtXrXz.$ J ,X,X,X,Xu.X F e.Q.Q.Q.Q.Q.Q.Q.Q.t.[ ^ ; n t.Q.Q._.`._.p.$ 7 Z V ; X X X X O $ F ",
"$ n ` w.Q.Q.Q.Q.Q.Q.Q./ Z > p v.2X3X3X3X2X3.$ N [.[.).t.N . N w.Q.Q.Q.Q.Q.Q.e.[ / / ^ ; n t.Q.Q.Q.Q.Q.Q.6 8 7 ; p E E L L L A < ",
"X n C C P [ e.Q.Q.[ / C 3 X + , q.q.q.9.9.&.$ ; c z 7 > y y ; t e.Q.w./ ( ( / / / ^ ^ ; n e.Q.Q.Q.Q.Q.Q./ 6 m 5.y.l.k.k.u.u.y.3.",
"  $ $ $ 7 P / / / I 3 ; m V u @ $.W S < < < X X > F ;.;.h.v.D - / ` / ^ ^ ^ ^ ^ ^ ^ ^ ; n e.Q.Q.Q.Q.Q.Q./ < A k.k.k.k.k.u.u.u.y.",
"M.M.M.2.y 3 n n v > N ^ '.-X'.w.$ $ , T #.p y a.f.S.8X8X2Xb.y @ b o o o @ # $ $ @ @ $ X 5 ^ [ ~.Q.Q.~.[ C < m u.u.u.u.u.u.u.4.J ",
"K.K.F.C.g   X X X   N  .Y.Y.] V A A =.5XS.T p z.b.2X2X2Xv.5.y h @.h j j g f * & j j j j & 6 / / / / / ^ C < m 8.0.0.0.0.8.8.n y ",
"F.F.F.C.G $ H &.&.%.p 8 Z C z t 7X4X4X4X2XA $ q &.s.s.s.&.S h K.F.F.F.F.M.o.0 q F.K.K.K.+.0 t ^ ^ ^ z 6 5 # * r b 3.3.3.3.J p =.",
"F.F.C.C.G % 5.l.l.l.3.< ; > 6 W 4X4X3X3Xv.5 $ , : r m m m p G V.N.M.g.>.O.e * g ,.>.<.g.F.o.< > > > 5 5 4 0 0 0 , ; ; ; ; X H S.",
"C.C.C.V.G $ E 3.S S S A p i 5 m n.z.9.W A < J &XJ > : : , 0 *.-.O.O.@.e q f.wXA , , , # G *.y $ G G 8XiXrXrXrXrX8X*.+.+.+.g h #.",
"C.C.C.V.G $ m N @ $ $ G.aXaXD $ E L J > 5 $X&X*X&X@X$XOXr X X X # # , G.7X7X7X6X6X4X5Xs $ $ X q wXrXrXiXrXrXrXrXrX5XG.G.F.V.h X ",
"V.V.V.B.k & X $ z.S.8XrXtXtX6Xv.+ + X E OX&X+X`.`.(.(.7 &.G.G.G.G.G.S.wXqXqXqX7X6X4X4XOXc.u.y $ s.3X4X4X6X6X4X4X6X6X5X5XG.B.M.j ",
"V.V.Z.M.j $ % $ 9.S.rXrXtXtXtXwXf.d.$ S u.i.w.' ^ ^ n m v.rXtXtXtXtXrXrXqXqXqX7Xn.9.m m m u 5 < q &.b.oXoXn.n.S.9.9.;.=.=.-.-.p ",
"B.g.2.G + m u.y.- A s.oXtXrXrXrXrXwXp $ @ o o X + X o f.n.c.c.c.c.c.z.k.q.q.q.3.u y 5 5 5 5 _ OXS < &.k.n.n.k.9.$ + X X X X X , ",
"<.h i A M w..X.X) < S u.7X7X5X5X5X2XL : H H H H H H $ s D m p p p p p p p F S r Q u.9X9X9X9X9X,XXXc r H 9.9.b 6 H &.&.&.&.#.e r ",
"g < 6 _ .X.X.XQ.^ ; m 3.k.k.f.s.k.s.S : 6X6X4X4X4X3Xy # e e w w i i i i q , t J 9X9X9X9X9X9X=X9X@X` 3 5 5 5 s 3.z.l.l.l.u.Q , S ",
"  M e. X X X XQ.K $ < r y y y y y y 5 $ 3X4X4X4X4X4Xf.0 B.B.B.B.B.B.B.B.1.e c .X=X=X=X9X9X9X9X9X+X^ v @ r s q.l.l.l.l.l.u.J $ F ",
"X B 7.Q. X XQ.7.B ; q r q r r r r r q $ q.n.4X3XoXy.y $ B.V.V.V.V.V.V.V.g.g c '.=X=X=X=X=X=X=X*X~.Z c o 3.l.l.l.l.l.l.k.8.S . 4 ",
"s 6 J 7.Q.p.^ C n 5 5XaXaXaXiXiXrXrX5Xq r &.n.k.R J : % ,.<.1.M.B.V.g.<.>.y c `.=X=X=X=X=X=X=X(./ Z t X E 0.k.l.l.l.u.0.S t u 5 ",
"u.N - B I I K V ; v.wXrXrXrXrXrXrXrX7XS.e : W J 8 - X X $ $ $ $ y -.o.o.o.e c Q.*X*X*X*X+X+X~.` 8 > i h & y R _ 8.8.) J ; 8.^.i.",
"l.u.J : 6 c ; $ s 8XrXrXrXrXrXrXwXS.v.v.i $ m > ~ Y (.r.( ( ( ( 5 % & % % X t  ....... .`.`.] ^ $ q B.C.,.0 t V J V n > 8.^. X X",
"u.u.u.6.: $ h , 0 8X5X5XS.k.s.3.W F @ $ 5 , 2 ! R.].:X,X>X>X,X%Xw.R @ s F S 6 Z I I I I I I K K $ f C.C.V.O.q $ $ $ o N ^.Q.^._.",
"u.u.w.K : ; i , , %.f.k.9.E m s : - u.&XgX8.7 I.~.%X+X+X+X+X+X'.| t y E 6.$.; : 6 6 6 6 6 6 6 6 X * j >.C.C.>.k k g X J e.Q.Q.Q.",
"w.8.m r F &.o.#.#.G r r r : Q _ 8. XhXjXjXu.> R R R R R ^ ^ ^ R c s y r r s j f f f f f f * e T o.o.A i *.C.C.C.C.Z.G r K | Q.Q.",
"M N $ y 2XsXsXsXsX8Xi 4 X c &X,X,X,XhXjXjXu.X + + + # $ $ $ @ : 5 u.d e e h g.2.2.2.1.1.:.e T rXsXsXS.p p g.V.V.V.V.B.4 < K e.t.",
"5 5 X y 2XsXsXsXsXsXaXG.@ / %X>X,X,XhXjXhXy.6 } r.r.t.r.r.r.Q > N u.8XeXL.L.L.L.L.L.F.g.a , 9.qXsXsXsX6Xy , =.<.a.a.<.X.0 < V / ",
"5X5X#.i 9.tXsXsXaXsXsXS.@ / %X>X,X,XhXhXhXw.c ).|.%X>X:X:X,X,XOX; y.8XeXL.L.L.L.H.x.d.%.q < s.7XsXsXsXsX9.h , D H H G & h e t C ",
"5X5X8XD p v.rXsXsXsXsXv.@ / [.>X>X>X>X,X,XXXB 7 ).-X%X%X-X).'.r.$ 3.q.v.H.H.H.h.%.E H H < < q.6XsXsXsXsXiXS.+ X X X     h +.q < ",
"3X8X3X9.y p n.tXsXsXaXk.@ / [.>X>X*X*X*X>X%X^ o ( [ [ [ ( / / V X 5 6 S 9.9.9.&.p @ # # X < 0.4XrXpXiXiXiXrXS.S.S.d.X   # $ X X ",
"3X3X2X3.y < q.3X6X6X7Xk.@ ! }.>X*X%X%X%X*X%X' X @ @ @ @ @ @ @ @ o.+.g 4 , A F u A v.h.h.5 < W z.3X6X7XwX7X7X8Xv.#.5 3.4.4._ 6 * ",
"2X2Xk.3.y : 3.k.c.c.c.9.@ ! }.%X[.~.Y.Y.[.w.7 r %.%.%.%.-.O.O.O.F.K.M.+.j * $ 5 h.6X6X6Xr ; J k.z.oX3X3X2Xc.q.A r J Q.`.`.Q.t , ",
"k.u.0.W < # r i i p p r @ ! Y.~.U.U.U.I...B i A.5X5X5X5XG.F.D.D.F.D.D.B.,.& G 9.6X6X6X6X9.y A q.u.u.k.k.k.q.m p )  X`.`.`.e.Z 6 ",
"0.8.W A p u u u u t 7 < $ z ~ ~ ~ ~ ~ / / v s S.S.S.S.S.v.h.h.h.h.f.f.a.o.$ v.6X6X6X6X6X3XD p W ) ) W W W N 6 Q `.`.`._.`.e./ 8 ",
"t b ; > [.%X<X<X<X{.}.).8 $ 6 7 7 7 5 > : # & y i i i i s D y y r r r r r H 2X6X6X6X6XS.s.e : 6 6 q q 5 5 % Q _.`.`.`. XQ.w.Z > ",
"; X 8 [ ~.Y.| | | | | | 8 $ : : : : : : , , , , , # X % : , ; % % $   # p v.5X5X5X5X2X5.L p , , , , , , $ $ w.Q.Q./.!.Q.Q.[ n 2 ",
"w.1 ! ~ P Z @ @ @ @ @ @ : t.-X*X%X%X-X=X9X9XfXfXgXT , 8.i.i.i.i.i.8.$ , =.=.&.&.&.&.&.H N k.tXtXtXtXrX7XW 5 ) Q.Q.Q.Q.Q.[ ' t c ",
"i.c > c > 8 (.(.(.(.(.N : ).:X:X:X:X}.).' S A A S q , 3.y.Q.Q.Q.w.B < % $ # $ $ $ $ $ + E k.c.c.l.z.z.s.r : 6 ^ [ [ ` ^ R 6 5 ) ",
"_.w.8 X / ).|.|.%X%X%XV > ~.;X;X{.Y.[ z X , % % % % ; @ t w.t.Q.w.v < f.S.S.S.S.S.S.S.f.$ % % * , % % % f g , ; K I C M @ X > ) ",
"Q.w.v ; | {.{.|.|.%X|.V > Y.R.R.Y.! 6 N R w.u.i.i.i.i._ @ 6 / [ / c F 2XrXrXrXrXrXqX4Xb.F F 9 X F $ 0 O.N.N.:.i < < > r ;.9.&.6 ",
"Q./ c 1 ..].{.{.{.{.|.V > Y.R.R.~ C @ 8.`.`.`.`.`.`.`.i.< : N K t : b.7X7X6X7X6X2Xc.l.l.u.0.y m +X8.< f :.Z.Z.@.4 f.f.v.tXtX7X&.",
"Q.^ 6 7 Y.E.].].].}.}.B ; I.I.I.~ v $ y.`.`.!.Q.Q.Q.Q.Q.m : X o X y 6X6X7X6X2Xc.l.l.k.u._ p m t.>X+XB n p O.1.X.p rXtXtXtXrXrXoX"
};
