/* XPM */
static char *_254cbde28d042389835b374e590fb37Ffb5joDCZMzfgyWT[] = {
/* columns rows colors chars-per-pixel */
"64 64 184 2 ",
"   c #0B0704",
".  c #070905",
"X  c #0B0905",
"o  c #0D0B09",
"O  c #100704",
"+  c #110A06",
"@  c #140D0A",
"#  c #190E0C",
"$  c #16110C",
"%  c #1B120D",
"&  c #170F10",
"*  c #1C0F10",
"=  c #151311",
"-  c #1D1411",
";  c #1E1813",
":  c #23140F",
">  c #231613",
",  c #2A1715",
"<  c #241914",
"1  c #2B1B16",
"2  c #271618",
"3  c #2C1719",
"4  c #251B19",
"5  c #2D1A1A",
"6  c #311D17",
"7  c #321C1C",
"8  c #391E1D",
"9  c #2C211B",
"0  c #33231E",
"q  c #3A221E",
"w  c #302A1F",
"e  c #341E21",
"r  c #391F21",
"t  c #352421",
"y  c #3C2422",
"u  c #342923",
"i  c #3C2A24",
"p  c #3D2D29",
"a  c #3E3027",
"s  c #3E312A",
"d  c #41251F",
"f  c #432624",
"g  c #482621",
"h  c #432B26",
"j  c #4A2C26",
"k  c #442D29",
"l  c #4B2D2B",
"z  c #502E2F",
"x  c #44332C",
"c  c #4C332D",
"v  c #52332E",
"b  c #5C372F",
"n  c #463530",
"m  c #4D3531",
"M  c #463932",
"N  c #4C3B32",
"B  c #4F3E39",
"V  c #533531",
"C  c #5A3732",
"Z  c #543B34",
"A  c #5B3B34",
"S  c #553E38",
"D  c #5C3E39",
"F  c #623C36",
"G  c #623F3A",
"H  c #6B3D3A",
"J  c #4F4038",
"K  c #534036",
"L  c #56423A",
"P  c #5C433B",
"I  c #5C483E",
"U  c #644237",
"Y  c #64433C",
"T  c #6C453D",
"R  c #63493E",
"E  c #6D483E",
"W  c #71463E",
"Q  c #72493E",
"!  c #5F4741",
"~  c #5D4A41",
"^  c #654541",
"/  c #6D4640",
"(  c #634C43",
")  c #6C4B42",
"_  c #674F49",
"`  c #6D4C48",
"'  c #714741",
"]  c #734C43",
"[  c #784E45",
"{  c #754E49",
"}  c #7A4F48",
"|  c #6C5147",
" . c #635149",
".. c #6D544B",
"X. c #755146",
"o. c #795047",
"O. c #7A5146",
"+. c #795145",
"@. c #795247",
"#. c #725348",
"$. c #745248",
"%. c #74544A",
"&. c #7A5249",
"*. c #7E574D",
"=. c #7C544A",
"-. c #745A4E",
";. c #7D594D",
":. c #745650",
">. c #7A5754",
",. c #775850",
"<. c #765D52",
"1. c #7E5E54",
"2. c #7C5D53",
"3. c #7A5F5A",
"4. c #766155",
"5. c #7E6256",
"6. c #7E6459",
"7. c #80564C",
"8. c #80594F",
"9. c #825B4F",
"0. c #825B4E",
"q. c #865F54",
"w. c #835D52",
"e. c #885E56",
"r. c #856052",
"t. c #846557",
"y. c #866154",
"u. c #896254",
"i. c #896256",
"p. c #8A6355",
"a. c #81665A",
"s. c #84645B",
"d. c #8A675A",
"f. c #8D6659",
"g. c #8E6659",
"h. c #8B665A",
"j. c #85685B",
"k. c #86685A",
"l. c #86685C",
"z. c #86695C",
"x. c #8E6859",
"c. c #8E685A",
"v. c #8B695D",
"b. c #8D695C",
"n. c #906556",
"m. c #92695C",
"M. c #906A5D",
"N. c #916A5E",
"B. c #926A5E",
"V. c #926C5F",
"C. c #926B5E",
"Z. c #95705F",
"A. c #96705F",
"S. c #886761",
"D. c #846A61",
"F. c #8D6D61",
"G. c #916D60",
"H. c #926E61",
"J. c #956E60",
"K. c #966F60",
"L. c #936E61",
"P. c #8D7064",
"I. c #957061",
"U. c #977160",
"Y. c #977261",
"T. c #957062",
"R. c #957264",
"E. c #997263",
"W. c #997367",
"Q. c #9A7766",
"!. c #9C7567",
"~. c #997465",
"^. c #9C7967",
"/. c #967669",
"(. c #95756A",
"). c #9B7768",
"_. c #9D7668",
"`. c #9D7669",
"'. c #9E7669",
"]. c #9B7569",
"[. c #95796A",
"{. c #9C796B",
"}. c #967C71",
"|. c #9C7C70",
/* pixels */
"X T ] [ [ [ ] ] ] X.] ] ] h       . . . . . .   . . .   . . . . , 1.G.I.I.I.b.b.R $ = 4 4 4 4 4 < @ | E.E.q.' ' c o o o o o o o ",
"X Y ] X.] ] ] ] ] { ] ' ' U v v <   4 s s s s s s s s x x k t o @ q $.b.b.g.u.$.p o s a.k.k.k.l.k.t.h.9.*.&.' Q T U 0 o o o o - ",
"X # % < y y y y y y l Y Y D C Z , o L Q.).`.`.`.`.`.!.!.E.M.,.# + . m ] ] ] ] j X + c G.I.I.A.J.J.J.g.] ' ] ' ' ' ] Z t o . o , ",
"0 o . - 5 5 5 5 5 5 7 8 8 , # @ h | v.V.y.+.+.+.+.+.X.X.] W / Y i . % > > > > % 9 ..) T T T W W W W ' ' ' ' T Y T ' ' U o o ! Y ",
"/.Z n @ # 5 5 5 5 5 5 5 5 - o o Z M.M.M.u.9.9.] T T T T T T Y Y i . . . . . . . 0 ' T Y Y C j j l l l l l l h 7 j / / U o + ) / ",
"^.^.[.#   4 5 5 5 5 5 5 5 1 < < Y v.u.u.y.y.q.] T T T / c : : > u J K K K K K x 1 q q y y 0 5 5 5 5 5 5 5 5 5 7 7 7 8 5 o o m l ",
"^.^.).` P o o % 5 5 5 @ o L Y.R.h.=.' C V C G l h y 7 9 - o + : Z Q.Q.Q.E.A.m.$.< o # - - > < 5 4 5 5 5 5 5 5 5 5 5 5 4 . . % % ",
").).`.&.Y @ @ % 5 3 < + o L R.R.2.Y D q e y c 8 5 # o . X + 0 }.R.e.q.u.y.9.] Y - . . . . . . .     % 5 5 5 5 5 5 5 2 + . @ @ @ ",
"} } [ Q Q &.2.N o . . X . 5 l l l f 7 5 3 3 5 > * @ . . > ^ / ;.=.] ] ] ] / T D < u x N N N N N N s - 3 5 5 5 5 5 5 2 X $ a.l.l.",
"W W W W T T X.( @ # # @ o 2 t t t e > > > > > # - B x O , ] ] ' ' ' ' ' Y y 2 # , ;.M.).).).).`.W.1.1 2 5 5 5 , < < - X $ 4.<.<.",
"T T T T T T W ' / / / Z . . . . X . . . .   . s <.R.2.C c y f l z z l h : + + + ( p.f.g.g.n.f.7.@.[ T l o o o X     X . . X X   ",
"T T T T T T T T T T T V o o o 0 K ~ ~ ~ ~ ~ ~ 6.).R.y.X.V @ - t r e t t # . 9 Z | | ) ) ) ) E Y ] [ ] Y @ . . - I I I I I ( ( I ",
"7 7 r l k j T T T C c t . . @ x <.P.).R.Y.R.R.P.R.h.&.{ S . o - - - - - @ . < c t + o o o o + 0 Y U T ^ % o o 9 R.R.R.R.R.R.b.y.",
"3 5 5 5 # : D D D 1 o X . . o @ @ x 5.2.%.X.] ] ] T C l i X . @ @ @ @ @ @ $ $ % % < < < - # o @ - - > - o . t A *.;.;.;.9.*.X.] ",
"3 3 5 5 % + % % % > t x x x x u 0 y y y y y l l l l q > = . u ......%.-.-.,.2.1.5.a.v.;.) i . @ = = = = $ @ k D D U ] ] X.] Q Q ",
"5 3 3 3 % . o % > c 1.|.{.).R.$.A y # # # 2 8 8 8 7 - o @ 4 I R.I.V.V.V.b.b.g.g.g.p.h.=./ y   N 6.6.6.a.) y X O X @ S A Y E W W ",
"@ @ @ @ o . < 6.l.(.).).).u.X./ Y c > > # o + + o o . . < l.b.V.b.*.=.=.] T T T T T / l 5 u ~ 2.b.b.V.V.b.) % X X o < < c / / T ",
"< < > % @ . < h.h.h.h.y.y.&.T T T ] 1.3.n . . % 9 9 B K P ;.&.&.X.E U C V v V V V c x 1 u ( R.u.;.;.;.q.V.G.A x x x 0 - < y y q ",
"v.v.2.Y 5 . - P P P P P P Z V Z Z D _ _ p . X x P.R./.R.;.U d r 8 8 8 7 7 7 7 7 5 % @ % a./.R.;.] ] ] w.w.9.h.v.M.h.] x o . . X ",
"b.h./ Y 5 . o + + o o o o o + + + + + + o   . s k.v.v.w.U U q 7 7 7 7 7 5 5 7 2 # o i ..R.E.E.G.G.V.G.g.] ] ] X.[ ] ' A t $ . o ",
"] ` Z 0 0 x x x x x x x x x h 0 @ . o o o o o % 0 Y &.] C k 8 7 7 7 5 5 5 5 5 - @ > L S.S.w.w.w.w.w.w.*.' ' ' ' Q ' ' ' ` 1 . < ",
"m m y - S ).R.R.R.v.b.d.d.y.;.Y % > _ _ _ _ ( p o 0 k h y 7 5 5 5 5 5 5 5 # @ o < Y / / Y j g g f f f f C C C C V v v v V u 9 x ",
"X   9 a.h.g.;.&.X.v j j h y q y # 1 F.I.I.I.I.| 0 % # # > 5 5 5 5 5 5 5 4 @ . . $ h k k c C C l 7 7 7 7 7 7 5 5 @ o X X X -.[.R.",
"X < x G.w.&.+.C f 0 2 # # # @ @ o > ) ] *.y.q.+.D 0 1 < @ $ @ @ @ @ @ @ @ o . . .       5 G T m 7 7 7 5 5 5 5 5 o + N N B 5.b.y.",
". a.F.=.&./ U h 5 5 # o o o o o o > Z Z D Y ' 7.G.h.s...% @ o . o o % x x x x x N N N B x 5 5 5 > 5 3 5 3 5 5 5 X + l.b.b.w.=.X.",
". L I Z Z k 0 5 - # x ( ( ( _ _ ( P < $ @ , / ] w.*.=.{ D m o o x N P v.I.Q.G.V.M.M.y.h.` < > $ o - > > > > > > . o L Y ) / Y D ",
". o o o o @ # # $ % ( F.V.G.b.v.h.%.1 % $ % V V V c c c c h o @ S Y / +.g.J.=.=.=.=.=.&.w.F.l.N . . . . . . . X X X X : y t 7 7 ",
"m < @ t t 0 5 . 5 Y T T T T T T T T *.S.` > o o o o o o + # m k @ o 1 ] ] ] +.&.&.=.@.+.&.1.-.i .   X 9 u u t u u u 0 > > > - - ",
"Y 6 # m V V f X , ^ T T T T T T T T T ' T i o @ % % % $ X @ A F 6 + % c v T T w.q.q.2.Y v f 2 o . o o -.R.R.I.I.G.F.=.6 o     o ",
"9 % o % % % @   + % % $ % > > > > > > > - $   i ) / / Z X % 2.h.=.Z p o 5 D U T v c l 8 5 5 # + $ @ @ ( 5.r.u.q.w.9.] / :.:._ D ",
"o . . o o o + o @ - > < < < % @ @ # $ $ $ .   0 D D A c 1 0 F.G.;.T Z : @ % V j @ @ @ o o o   t %.^ P > @ % ] ' W W W $.s.l.2._ ",
"o o @ ..:.-.-.) %././.(././.2.) -.l.l.5...4 . . o o o 5 1.1.' E T T T Y < @ c i @ @ @ + o @ . t ,.{ ) , @ % P G Y T T D 6 9 9 5 ",
"o < N G.V.b.b.X.@.).G.0.%.Z X.+.*.w.;.$.^ < . X X X X , %.$.T T T T Z % o   @ 0 2.a.a.^ Y ..9 % y T ] ) ^ m + + 1 / / Z X X X   ",
"X n [.Q.Q.R.R.] ) r.w.&.Y , T +.&.{ c > > @ s K K Z K k > q T T U A Z > , 5 0 x h.M.g.] ' X.k , 2 x c c m i X X % 0 0 0 ~ I I I ",
"0 P I.I.I.Y h y y y P G.-., U ] / y : % % < ..G.v.h.d.^ # , A A y + c =.2.v.S.s.&.' T T T T T / 1 o o o . X X X . o . % R.Q.Q.!.",
"R.b.;.%.%.c 7 7 7 7 y l h 5 h l 6 + x l.l.l.G.w.E E E E Y 5 @ @ @   > i u i i i D T T Y T T T T f % o < u i i i p p a x Q.Q.~.I.",
"v.w.Y q y 8 5 5 7 5 5 5 7 5 7 5 > : k ] ] ] ] ' T T T U P 1 o o o o o @ + + o   c T Y 1 l T T / / y o ~ {.{.{.).).`.Q.Q.Q.E.J.U ",
"D c 8 7 5 5 5 5 5 5 3 3 2 2 @   < D F F F F F Y T T T V @ 1 | #.#.#.) ) ) ) i % 0 h i % < u u i y > t %.v.b.f.f.f.p.u.u.w.] ) q ",
"7 7 7 5 5 5 5 5 5 5 #           > l l l l l l l l l l h 5 c ;.M.M.M.*.] ] ] ' ) < o o X X X . . . X N %.{ ] ' ' ' b C T f 7 7 5 ",
"5 5 5 5 5 5 5 5 5 5 % + p ~ Z x t # # # # # 2 7 7 5 # , ) ] ] &.&.&.] Q Q ' ] ] c k k h x N N N 0 o ; 9 h f f f y 7 7 y 7 5 5 5 ",
"& - > 2 2 2 2 # @ + m | &.w.] ' V , 9 9 ; . # - > - o $ k c c l l D / T T Q ] ] X.+.+.+.w.J.R.v.T c % + < 5 5 5 5 5 5 5 5 5 5 5 ",
"# o o + + + + o  .2.s.h.] ' ' ' T ] F.F.(   . . . . X . o o o o o < k / T T Y Y Y Y Y Y T [ &.&.' ' Z 0 @ 5 5 5 5 5 5 5 5 5 5 5 ",
"A + o s Z K K K F.g.9.=.' ' ' ' W ] ;.;.P   < N N N N N N B Z N k @ # h G G C C C C C C G / ' ' ' ' ' D k # @ 1 5 5 5 5 5 5 5 5 ",
"m o .  .k.k.v.V.G.&.' ' Q W W ' T T T T c   x ).).).).).).{.).G.%., @ o n k % % % % % % k ) ' ' ' ' ' ' / q 1 % - 5 < @ @ @ @ @ ",
"o . . - < < P ] ] ' Q / / / / / T y < < 5 m ` v.b.b.g.g.g.h.p.0.] Y h $ @ @ . . o o o o % h / / W ' W W ' T D o . - % . % > > > ",
"S S S < X 1 Y ' / T Y Y c 5 5 5 5 @ . . < %.=.$.$.$.X.] ] ` ) E T ' G c + o $ p P v u > @ > y C T T T G l x u . @ % % . y Y ^ ^ ",
"2.2.2.0 X p Y Y V 8 q 0 > o o % u u u u t 1 > 5 t 0 0 0 8 7 8 j T T T D + ; m / =.' A k 5 - # j T T T c + o o < K a.~ . y G G G ",
"> - - o X @ % % > 3 5 5 - . . u D.d.d.d.1.6   > 5 5 5 5 5 5 5 y l l l h @ q h.*.Q Q T T h 2 o 7 c v c t X . n S.J.w.P o @ % % % ",
"x x x s s x x @ @ % - - # . . 9 ( } [ ] ' A v 1 o - 5 5 5 5 5 5 5 - % > 2.;.[ ] Q Q F C y 2 # @ @ @ @ % 0 n 2.W.J.] A > < 9 9 1 ",
"F.S.v.d.d.d.s.f 7 X . o . o . o 2 T T T T T T 6 . $ 5 5 5 5 5 5 < @ < ( g.q.] ] T A y 7 7 7 5 # . > 5 c F./.R.7.] ' E Y $.w.5.1.",
"C C C A C C C v v X . p m N N N x 7 7 6 6 7 5 % . o # # - 5 5 5 2   i {.&.] ] T C 7 5 7 7 5 5 # . c / d.E.w.=.] Q Q ' ' ] [ ] ] ",
"y y y y y y y f h o . ..l.G.V.R.-.o . X X X . . . . .   o % % % , Z U =.+.] / l 7 5 5 5 5 5 5 # o x U 1.;.] Q Q Q Q ' ' ' W W W ",
". . .       X X . .     : T Q p.v.4.4.2.<.-.-.-.-.-.-.R s o . . < >./ b / v 7 5 3 4 # @ @ @ @ o . . . # T U U Y Y ' ' ' W W W W ",
". . X X @ s x x x x p % - v C 9.V.J.J.J.J.J.J.J.J.J.J.9.D % % % > i y q q 7 2 2 2 > % % % % - < 1 4 @ @ m V C l j / ' ' W W W W ",
"_ _ _ _ %.R.R.E.E.I.V./ u   @ P *.*.=.=.=.=.=.+.] ] ] ] ] ] ] ] h X . . o % - # @ o  .(.(.l.+.q.Q.).h <     > 5 > ) / / / / / / ",
"J.J.G.G.J.J.V.b.p.p.y.E c 5 2 i P Y Y P P P P D Z Z c x c c c c 9 X . o o + + + @ S l.E.E.u.] Q Q ] ' ) , % @ - @ 0 6 6 0 6 0 0 ",
"R Y Y Y Y Y Y S m c v E Q T c $               o o o @ @ @ o o X X o x F.F.F.F.F.v.R.E.V.*.] Q Q ' W W W q.2.      .             ",
"o o o o o o o o o o $ / E T G c > o < t 0 0 0 0 0 0 y y y y 0 @ % ( =.v.b.b.g.f.u.y.y.w.] Q W W W W W ' e.w.h >   i ^ E E T C v ",
"t 5 o o 9 0 0 0 u w i E E T ' / 5 + ( v.v.v.v.u.;.*.*.*.*.&.] < - Y Y U G D D D D A D D Y Q W W W W W W 7.*.C 7 % 0 k Y ] ] W H ",
"7.Y o @ l.F.G.R./.[.R.E c x x k - o x ( ( ( _ I V m m k y y t @ . . . . . . o       . X h / / ' ' ' T / T T T T / 0   m G G Y Y ",
"V k o + ~ _ _ ( L Z N N $ .     X X X X X X X X X     o $ @ . $ < @ + @ @ o 9 B N Z N N u 6 6 6 6 6 1 1 6 6 6 6 1 $   @ # # # % ",
"  . . . X             X X % m P Z l Z S S c k k i i i 0 @ $ 4 I /.).[.[.[.2.a.R.I.I.R.F.x + + + + + o o . o o . . . X X X @ @ @ ",
"i 0 o t K L L K x h i i N P &.9.+.Q 0.n.u.X.] ] ' ' ' Z + t (.V.E.`.V.M.M.M.C.V.V.v.X.E E ) / / / ) R < . . M | | | | | | l./.a.",
"] D @ P J.I.I.V.9.' Q Q M.g.Q Q T Q =.=.` , # : A G 1 < % h R.I.u.9.y.=.T T T T U U T T / / / ' / / ) < o % | J.R.R.I.I.V.h.g.*."
};
