/* XPM */
static char *result[] = {
/* columns rows colors chars-per-pixel */
"64 64 234 2 ",
"   c #030301",
".  c #0D0908",
"X  c #1B1516",
"o  c #130D0B",
"O  c #221C1B",
"+  c #27201E",
"@  c #1D1522",
"#  c #251C27",
"$  c #241B36",
"%  c #321D2B",
"&  c #2A2527",
"*  c #342725",
"=  c #3B2B3B",
"-  c #352A35",
";  c #363235",
":  c #3B3335",
">  c #3C343B",
",  c #3A3A3D",
"<  c #373A3E",
"1  c #312C33",
"2  c #452D3A",
"3  c #41333D",
"4  c #423B3B",
"5  c #473938",
"6  c #503532",
"7  c #792533",
"8  c #55433C",
"9  c #281F44",
"0  c #2D2345",
"q  c #392B43",
"w  c #3E3E42",
"e  c #393840",
"r  c #433343",
"t  c #403F44",
"y  c #4B3A48",
"u  c #4C3D53",
"i  c #52394E",
"p  c #783D44",
"a  c #3E4044",
"s  c #414145",
"d  c #4A4344",
"f  c #444349",
"g  c #4C454B",
"h  c #4B4A4D",
"j  c #4A4949",
"k  c #52444D",
"l  c #524A4D",
"z  c #584847",
"x  c #4C4751",
"c  c #544552",
"v  c #524E52",
"b  c #55435A",
"n  c #5C4C5C",
"m  c #594657",
"M  c #535154",
"N  c #5B5354",
"B  c #5B555B",
"V  c #5D5A5D",
"C  c #575358",
"Z  c #5C514E",
"A  c #624D47",
"S  c #64524C",
"D  c #614C5A",
"F  c #6B5553",
"G  c #63555C",
"H  c #645C5D",
"J  c #6A5C5D",
"K  c #665557",
"L  c #775C58",
"P  c #7E474D",
"I  c #6E605A",
"U  c #76635D",
"Y  c #5F4D61",
"T  c #5F5562",
"R  c #624C62",
"E  c #645463",
"W  c #6A5665",
"Q  c #655B62",
"!  c #6A5B64",
"~  c #66556A",
"^  c #6D5B6B",
"/  c #6A586C",
"(  c #735E6C",
")  c #6D5C70",
"_  c #656164",
"`  c #6B6464",
"'  c #6E666A",
"]  c #6D696C",
"[  c #656368",
"{  c #736564",
"}  c #72676A",
"|  c #736B6C",
" . c #7B6D6C",
".. c #7A6764",
"X. c #7C716F",
"o. c #73706D",
"O. c #746573",
"+. c #7B6E73",
"@. c #796A76",
"#. c #767174",
"$. c #7C7373",
"%. c #7C747B",
"&. c #7F797B",
"*. c #7D7976",
"=. c #8C323C",
"-. c #943F4A",
";. c #8A3C48",
":. c #895556",
">. c #8F4751",
",. c #A3525C",
"<. c #86655F",
"1. c #A95E68",
"2. c #886A64",
"3. c #82716D",
"4. c #83677C",
"5. c #897B74",
"6. c #837B7D",
"7. c #877776",
"8. c #977976",
"9. c #966C72",
"0. c #A27D77",
"q. c #B16B73",
"w. c #96837D",
"e. c #85817D",
"r. c #A6857C",
"t. c #7E6E81",
"y. c #866D81",
"u. c #8A7F84",
"i. c #877A87",
"p. c #8E7E92",
"a. c #947E8C",
"s. c #A77D82",
"d. c #BF7E81",
"f. c #C37F86",
"g. c #868182",
"h. c #8C8285",
"j. c #8C838A",
"k. c #8D8A89",
"l. c #938483",
"z. c #9B8A85",
"x. c #91868C",
"c. c #948A8B",
"v. c #9B8D8B",
"b. c #958986",
"n. c #9B928D",
"m. c #938494",
"M. c #938C92",
"N. c #998998",
"B. c #959095",
"V. c #9C9294",
"C. c #9E949A",
"Z. c #969298",
"A. c #8F8095",
"S. c #A78D86",
"D. c #A8928C",
"F. c #B2938B",
"G. c #A39492",
"H. c #AC9A95",
"J. c #A69B9D",
"K. c #AB9C9C",
"L. c #A59598",
"P. c #B39B94",
"I. c #B29E9B",
"U. c #B99A94",
"Y. c #A78B95",
"T. c #ADA19D",
"R. c #BCA39D",
"E. c #B3A29D",
"W. c #A59AA1",
"Q. c #A89AA4",
"!. c #B19EA4",
"~. c #ABA3A4",
"^. c #ABA4A7",
"/. c #B1A4A3",
"(. c #B3A9A5",
"). c #BCAAA4",
"_. c #B3A3AD",
"`. c #B6ACAE",
"'. c #BCADAB",
"]. c #BBA7A6",
"[. c #BEB4AE",
"{. c #B7AEB1",
"}. c #B9ADB2",
"|. c #B6A6B0",
" X c #BDB3B4",
".X c #BEB3BA",
"XX c #C5868D",
"oX c #D39297",
"OX c #C1AC9D",
"+X c #C5ADA6",
"@X c #C2ADAB",
"#X c #C9ADA6",
"$X c #C4B2AC",
"%X c #CBB5AC",
"&X c #CAB1A6",
"*X c #C5B5B3",
"=X c #CABAB4",
"-X c #CDBDBA",
";X c #C6B7B7",
":X c #D3BDB5",
">X c #D2BEBB",
",X c #CFAAB2",
"<X c #E6A7AE",
"1X c #CDC2BD",
"2X c #D5C2BC",
"3X c #DAC4BC",
"4X c #D4C8BF",
"5X c #D6C7AE",
"6X c #CBC19E",
"7X c #CABDC3",
"8X c #CDC4C3",
"9X c #D4C5C3",
"0X c #D4C9C5",
"qX c #DBCBC4",
"wX c #DDCDCB",
"eX c #D6C8C7",
"rX c #DED2CB",
"tX c #DFD1C7",
"yX c #DDD3D0",
"uX c #DCCFD0",
"iX c #E1CDC7",
"pX c #E3D0C7",
"aX c #E2D3CB",
"sX c #E8D9CD",
"dX c #E4D6D1",
"fX c #E5D9D2",
"gX c #EADCD4",
"hX c #E8DCDA",
"jX c #EEE3DB",
"kX c #EEE1D7",
"lX c #F1E6DC",
"zX c #F2E8DE",
"xX c #EFE8E1",
"cX c #F4E9E4",
/* pixels */
"s s s s s s a s s s a a a a a a a a a a a a a a a a V ~.(.(.(.T.(.o.G./././././.~.~.] s s a w a a w w a a f a a a a a a a a f a ",
"s a s a a s s s [ j f a f a ] h a a a h [ a a f a #.V.rXkXgXgXqXsX5.-XfXfXfXfXfXgXsXE.e.] s w a _ V a a a a f ] h a f a f a a a ",
"s a s a s s s f Z.h a a a a ^.M a a a B B.a a a a 1XzXzXzXzXzXrXgX3.-XjXzXzXzXzXzXzXzXzX~.a a a B.%.a a a a h {.M a a a a a f a ",
"s s s s a s s s Z.h a a s a ^.M a a a B B.f a f j 8XjXzXzXzXzXaXgX3.1XjXlXzXzXlXjXzXjXjX~.j a a M.*.s a a a h {.M a a a f f a a ",
"a f a a s s s d Z.h s a a s ~.M w t s B Z.f a G  XjXzXjXlXlXzXtXhX3.>XjXzXzXlXjXjXzXjXjXsXv.t s M.%.s t t a h {.M f f a a f a a ",
"a a a f f a s f B.h s s f a W.M s a t B Z.f f Q 1XjXzXzXlXlXzXrXhX3.>XjXlXlXzXzXlXlXzXjXjXE.t t M.%.a w s a h {.M a a a a a f a ",
"f a s s a a f f B.h a s a s W.M s s a C B.f a ` H.qXkXlXjXzXzXtXfX3.>XkXlXzXzXkXkXlXlXzXjXI.t s M.%.a w a a h {.C a f a f a a a ",
"a a s a a s a j B.h s s s s W.M s a a C Z.f a ` D.5XsXzXzXzXzXpXhX3.>XlXlXlXzXzXlXlXlXgXqXH.t s M.%.a a t a h }.C a a a a a f a ",
"f a s a s s s d B.j s s s s W.M s a a C B.f a ` D.&XR.#X2X:X2X+XiX3.].3X3X2X3X2X:X:X%X#X+XD.4 t M.%.a w s a h {.M a a f a f a a ",
"a s s s a s s f M.h a s a s W.M s < a B B.j f G ( U.=X3XaXaXaX%XsX3.@XaXpXpXpXpXpXpX3X:X:Xz t t M.$.a s s a h {.C a a a a a a f ",
"a s a s s s a f B.h a s s s W.M a a a V B.j a G L R.aXgXlXlXlXqXgX3.-XkXkXlXlXlXlXlXlXgXiX5 t t M.%.a s s a h {.C a a f f a a a ",
"f a s s s a a j c.h s a s s W.M a a < C B.s a V U %XsXaXaXpXaX%XuX3.-XlXlXlXsXaXaXaXgXlXdXL t t M.%.w s s a h {.M a a a a a a f ",
"a f a a s s f f M.h a s s s J.M < a a B B.f s H OXsXaX1X].R.R.S.>X3.*XsXaXiX#X#X#X%X5XkXlX..t t M.%.w w a a h {.M f a a a a a f ",
"a a a f a s a f M.h s s a s L.M a < a C M.j s H 6X5Xr.U S z 8 5 8.3.I.%XU.0.2.A 2 5 4 X.hXG.t t M.#.a t a a h [.M f a f f a a a ",
"f a a a a s s s M.h a s s s C.M w a a C B.f f H 0X&Xr.5         $.7.iXlX%Xr.<.+       l hXI.t t M.%.a t a a h {.M a a a a a a f ",
"a a a f s s s s M.f a s a a C.M w a a B M.j s H @XU.w.8         +.5.dXlX:XU.2.*       j iXL.t t M.%.w s a a h [.M a a f a f a a ",
"a s s a f s a j m.h w s s s C.M w w w B B.d s H z S.z &         {  .K.sXpX2X8.&       + { j d t M.%.w w t w j {.M s a s s s s a ",
"f a a a a a a s M.f a s s t C.M w w w B B.s s H 3.I.5.d     o X 6.$.5 G.4XaXE.8     o N G.N t t M.%.a a s a h  XM s s s s a s s ",
"a a s f s a a j M.h s s s s V.M < a a B M.f s I I.=X9X .  . H l. X~..   *.1XdXg.    + -XaXx.t f M.&.w w a s h {.M s s a a f s a ",
"a s s a s s a s M.h s a a s C.v a < a B M.f a I I.=X3X4X%X*X=X].N         7.9X>X'.T.!.qXwXx.t d M.t.a w a a h {.M t s s a a s s ",
"s s s s s s a j m.h a s s t V.M < a a B M.f a _ U ).>XwXiXiX4X].z       . 7.#X>XwXwXwXwX=X! f f M.%.a w w a h  XC s a a s a a f ",
"a a s a a s a s M.f a s s t V.M a a a B M.f s H { $...{ G.$X*X3.b.Z   j } D.).=Xw.` ` { V.B s t M.&.a w w w h {.M s a f a f a a ",
"f a s s s a s s c.h t s s t B.M w a a B M.f f I ' j ; o z.=X1X..$X(.H H.*X].=XqXb.* & * 6.H t f M.&.a a w t h `.M a a a a f a f ",
"s a a s s s s f m.x s s s s B.M < a a B M.h a T } j j X 0XcXqXw.%XkXkXlXdX].9XjX4X: 4 w h.V s s M.t.a a w w v {.M s f a a a a a ",
"a a s a s s a f x.h w t s t N.M w a w V M.f a _ } h j O w.yXzXb.*XhXlXjXsX].*XqX>X5 7.J h.V 4 s M.%.w t w a h `.v a a f a a f a ",
"f a a f s a s s x.h s s s t M.M w a a V M.f f Q } l ..z : 5 8 n.v.G.n.n.G.].7.8 5 5 d 4 h.V d s M.6.a w t a v {.M a s s a s f a ",
"a a a a s s s s x.x t s s s c.M w a a B M.f a I } v ....F * ( 5.` J K H I D...S U K.J t u.V d f M.%.s w s w h  Xv a a a a a a a ",
"f a f s s s s f x.h t a s s c.M w a w B B.f a H } k l +.H.U 9.J X.G.G.G.3.z I E.E.G.G f u.V t s M.%.a w t a h }.v a a s s a f a ",
"a a a a a f s f x.h t t a s x.M w a a V B.s f Q } l c k d 7.Y.P.+XiXpXaXqX=X*X)...l f d h.G t f M.%.w t s a h }.M a a a s a a s ",
"a f f a a a s s j.h a w t t x.M w w a B V.f f ^ +.N G / G i i 8.8.F.F.S.D.G.5.I ! ^ _ H V.J t t M.6.t t t a v {.M a s f a f f a ",
"a a a a a a a f j.h a a t t m.M w a _ Z.!.m.m.N.}.;X7X|.a.D D n D :.:.F K Y.K.7XuXeXeX9XyXV.i.j.Q.i.t t t a v `.v a s a a a a a ",
"a f a f f a f s A.h a a s s j.M w w *.{.}.|.}._.*X7X7X_.N.D R y r =.>.9.a.Q.!.>X7XeX8X9X7X;X.X;X}.%.t w a a h {.v a s s a f a s ",
"a a a a a s s s j.h t t t s j.v s a h G ! ^ W ( ^ ^ ' ) i b Y b R -.>.i n R W W R W W W W ~ W ! G c t t t t v {.v s s a f f a a ",
"f f a f s s a f j.h s t s s j.M w a a G  .t 3 3 3 r = q q u t.b i 7 ;.r r r r r r r r y i y t G K g t t w t h `.v s s s a a s a ",
"a a s a s s a s j.h s t t s h.v t a h V.9Xg r W G r = - = b t.Y m =.-.= - % - - 1 - = z 9.D c =X-X` t t t s v `.v s a a a f a f ",
"f a a a f a f s j.h t t t s h.v t t J.eXeXg r F.9.@ # @ # b p.Y ( =.q.% @ @ @ @ @ # 1 m S.F m aXkX7.s w a s h {.v a s s a a a a ",
"a f a a a s f s j.h w w a s g.v s H -XV.o.t t s.s.k B n u ~ A.~ @.,.oXD E / O.O.@.u.j.l.7.$. XaXkXl.8 a e a h {.v a a f a f a a ",
"a a a f s a a f j.h t t w d h.v t | qXo.t t t r G _.!._.O.O.m./ 4.1.<XL.Q.!.^._._._.L.h.O d e.D.sX(.v w a a h {.v f a a s a a a ",
"f a a a f a a f j.h w t s s u.v s | 9X| w t t +.Z = r y q T A.~ ( =.1.3 y t t r 4 3 - Z v.K t d -XjXyXs a w h `.v a a a a a a a ",
"a a a f a s s s j.x t s a a u.v d $.0X| t t s S.I.Q.u x u ~ N./ @.-.XXG B T T E ! _ c.T.K.G w 4 {.8XuX[ j s h {.M a a a a a a a ",
"a a a f a a f a j.h w f w t i.V | $X$XV a s s d l.-X|._._.@.N.) y.q.<X@X;X7X7X7X7X7XeX(.z Q w t C.` J.aXK.b.M `.v a a a a a a a ",
"a f a a a s s s j.h w t f t 6.] c.tX#.a a s d J.3.- y c c ^ N.) 4.>.XXm v Z v m Z l : H K.| w t Z.C h h.-X[.` *.C M a a a a a a ",
"a a a f s s s s i.h t s t t +.7.z.4X] 8 t t w `._.! k r r E N.) 4.-.f.2 ; - ; ; : 3 d | '.| t t B.M a j X.wX;X] N o.B a a a a a ",
"a a a a s s s s j.h t t t f g 7.].aX` w t t t H ` Y.+.W W O.N.) y.,.oXW ! ! W W ! 6.`.(.l.G w t B.M a s f $.;XJ.| N } M a a a a ",
"a a a s s a s s g.h a s 4 ` J H.qXrX` s s s t l J 6.u.N.p.t.N.) y.q.<XI.}.}.}.*X X*XJ.c.J l t 4 B.v a a a t } yXL.B H N a a s a ",
"a a a s a f s s i.h w s t N 5.].*X6.[ a s t t l.G.X # - = R m.) 4.;.q.2 ; ; ; ; & . X 4 v.$., t M.M a a a t l *XsXv.` N a s s a ",
"a a a a a a s s u.h t t $.d I.]._ *._ a t t s j $.;X} = = R m.) y.>.oX2 > > : > , , ^.yX! 4 t t B.x a a a t j V.J.9X`.| a f s a ",
"a a a s s f s s u.h d C H l.qXT.f #._ t t t t J ! O.M.Q.L.O.m.) y.1.<X@X.X.X.X.X.X.X7.H 6.} t t B.M a a s s j k.B ;X*X| a a s s ",
"a a a a s s s s g.h M ' } @X-X| 8 #.T a a a s W.+.k m C Y Y p./ 4.-.f.G E Q E Q Q G !  .v.4., t B.M a a a w h k.w `.*X*.a a a f ",
"a a a a a s a s u.h v Z H.@X} t a *._ a a a s +.Y.x.B r q Y p.~ @.-.f.k g c c x c k +.N.x.' w w B.x a a w a h k.`  X[.` a a a a ",
"a a a a a s s s i.j M l.I.K.t t s #._ w a a a t @.N.N.C.p.t.p.~ y.1.oXV.W.W.W.W.W.W.Q.Q.V w , s B.v a a w a j k.V.k.V j a a a a ",
"a a a a s s s s &.j H (.6.} t s a #._ a a a w w k T R W Y R i.~ ^ p 1.k u u x x g s t e = w w a B.v a w a a j n.kX] a s a a a a ",
"a a a a a a s s %.N /.2X7.` s s h k.k.*.*.*.*.#.' ` } y - b p.Y D 6 -.% $ $ $ @ $ T &.&.o.w.e.g.{.k.e.6.M s j k.jX[ s s a a a a ",
"a a a a a a a a N *XV.` Q ] s t *.0XkX[.1XyXkX[.b.B.}.4.= b i.R W P q.r 0 0 0 0 q ;X1Xn.e.).cXzXxXxXxXaX] s M  X1XV 8 s a a a a ",
"a a a a a a a h G 9Xu.f V ] j V o.4XqXI z [.aXw.O * ^ ( r b y.R / >.XXr 0 0 0 0 q hXT.U e.e.zXpXjXjXkX=XH s _ hX~.C s a a a a a ",
"a a a a a a f M ` -Xo.s T ] H 0XfXzXzXlXU U b.2Xv.2 y ( ^ u Y R R i R 9 0 0 0 a W.n.*.w.5XtXr.A =X2X+Xr.S h | 0XV.M a a a a a a ",
"a a a s a a w g.dX].} f h M b.9XgXzXzXcXgX=XE.5X2XI.4.= - q u g q $ $ $ $ $ $ C.(.5.H.rX4XU 8 r.&XF.8.r.Z V.hX6.8 < s t s a a a ",
"a a a s v C Q b.*XH f s 8 a S.P.%XzXlX#X).2XzX4XqXsX[.6.i.O.X X o o # # & x V.-X4X4X*X5.6 5 A w.0.0.0.z d $.~.c.] M j s t a a a ",
"a a f M ~.1X4X:X'.h w s a d 8.S.OX:X3XU S U w.R.0XaXwXqXeX'.X . . X '.2X2X4XeXqX$XX. .z...A w. .F F K 8 w | H.dXaX4XK.f a a a a ",
"a a l }.-X2X4XE.g.j w t a s S 2.0.r.F.E.F 8 S 5... .D.+X+X+X+X&X*X].P.P.P.U.E.v...N I -X6XG.fX` , , , s a _ x.[.'.).V.s a a a a ",
"a w h ^.(.`.(.} a t t a a s : S U <.2.5Xz 8 0Xn.X o 8 2.L L OX3X3XpXiXqXiX+X* . 3.wXdXrXT.'.`.V 8 a a a a f V 1X;X-X~.s a a a a ",
"a a a s s s s a t s w a a a s , ; ; < 4XfXqXT.rX0Xj 1 5 F F L :.0.&XpXpXpX%X2.w.2X3X>X7.d s j a a a a a a a f v v v h a a a a a ",
"a a a s t w a a a s a a a a a a a w a o.*.*.` g.k.Q < < : ; ; ; <.r.F.F.F.R.&X%XsX5XOXH a a a a a a a a a a a a a a a a a a a a ",
"a a a w s a a s a w a a a a s s a a a a a a a a a a a a w < < < d 8 : 5 5 2.S.F.D.D.S.S a a a a a a a a a a a a a a a a a a a a "
};
